<svg width="40" height="40" xmlns="http://www.w3.org/2000/svg">
 <g transform="translate(-36,-2)">
  <title>Layer 1</title>
  <g stroke="null" id="svg_80">
   <path stroke="null" id="svg_81" d="m70.899988,31.8c0,2.8 -2.3,5.1 -5.1,5.1l-19.7,0c-2.8,0 -5.1,-2.3 -5.1,-5.1l0,-19.7c0,-2.8 2.3,-5.1 5.1,-5.1l19.7,0c2.8,0 5.1,2.3 5.1,5.1l0,19.7z" fill="#395398"/>
   <path stroke="null" id="svg_82" d="m61.499988,36.9l0,-11.5l3.9,0l0.6,-4.5l-4.4,0l0,-2.9c0,-1.3 0.4,-2.2 2.2,-2.2l2.4,0l0,-4c-0.4,-0.1 -1.8,-0.2 -3.5,-0.2c-3.4,0 -5.8,2.1 -5.8,5.9l0,3.3l-3.9,0l0,4.5l3.9,0l0,11.5l4.6,0l0,0.1z" fill="#FFFFFF"/>
  </g>
 </g>
</svg>