<svg width="40" height="40" xmlns="http://www.w3.org/2000/svg">
 <defs>
  <radialGradient gradientUnits="userSpaceOnUse" gradientTransform="matrix(0.6534 -0.757 0.6147 0.5306 -12.6027 558.513)" fy="320.6887" fx="518.4326" r="60.9887" cy="323.4214" cx="537.2449" id="SVGID_1_">
   <stop stop-color="#F9ED32" offset="0"/>
   <stop stop-color="#F8D939" offset="0.061477"/>
   <stop stop-color="#F5A54D" offset="0.1874"/>
   <stop stop-color="#F0536C" offset="0.365"/>
   <stop stop-color="#EE2A7B" offset="0.4486"/>
   <stop stop-color="#9E2AA7" offset="0.5994"/>
   <stop stop-color="#5B2ACD" offset="0.7418"/>
   <stop stop-color="#2A2AE8" offset="0.86"/>
   <stop stop-color="#0B2AF9" offset="0.9496"/>
   <stop stop-color="#002AFF" offset="1"/>
  </radialGradient>
 </defs>
 <g>
  <title>background</title>
  <rect fill="none" id="canvas_background" height="402" width="602" y="-1" x="-1"/>
 </g>
 <g transform="translate(-520,-296)">
  <title>Layer 1</title>
  <g stroke="null" id="svg_83">
   <path stroke="null" id="svg_84" d="m554.899988,325.8c0,2.8 -2.3,5.1 -5.1,5.1l-19.7,0c-2.8,0 -5.1,-2.3 -5.1,-5.1l0,-19.7c0,-2.8 2.3,-5.1 5.1,-5.1l19.7,0c2.8,0 5.1,2.3 5.1,5.1l0,19.7z" fill="url(#SVGID_1_)"/>
   <g stroke="null" id="svg_85">
    <g stroke="null" id="svg_86">
     <path stroke="null" id="svg_87" d="m544.699988,327.8l-9.6,0c-4.2,0 -7.7,-3.4 -7.7,-7.7l0,-8.4c0,-4.2 3.5,-7.7 7.7,-7.7l9.6,0c4.2,0 7.7,3.4 7.7,7.7l0,8.4c0,4.3 -3.5,7.7 -7.7,7.7zm-9.6,-22.1c-3.3,0 -6,2.7 -6,6l0,8.4c0,3.3 2.7,6 6,6l9.6,0c3.3,0 6,-2.7 6,-6l0,-8.4c0,-3.3 -2.7,-6 -6,-6l-9.6,0z" fill="#FFFFFF"/>
    </g>
    <g stroke="null" id="svg_88">
     <path stroke="null" id="svg_89" d="m539.899988,322.8c-3.8,0 -6.8,-3.1 -6.8,-6.8c0,-3.8 3.1,-6.8 6.8,-6.8c3.8,0 6.8,3.1 6.8,6.8c0.1,3.7 -3,6.8 -6.8,6.8zm0,-12c-2.8,0 -5.1,2.3 -5.1,5.1c0,2.8 2.3,5.1 5.1,5.1c2.8,0 5.1,-2.3 5.1,-5.1c0.1,-2.8 -2.3,-5.1 -5.1,-5.1z" fill="#FFFFFF"/>
    </g>
    <g stroke="null" id="svg_90">
     <path stroke="null" id="svg_91" d="m548.099988,309.3c0,0.8 -0.6,1.4 -1.4,1.4c-0.8,0 -1.4,-0.6 -1.4,-1.4c0,-0.8 0.6,-1.4 1.4,-1.4c0.7,0 1.4,0.6 1.4,1.4z" fill="#FFFFFF"/>
    </g>
   </g>
  </g>
 </g>
</svg>