<svg width="595" height="1083" xmlns="http://www.w3.org/2000/svg">

 <g>
  <title>background</title>
  <rect fill="none" id="canvas_background" height="1085" width="597" y="-1" x="-1"/>
 </g>
 <g>
  <title>Layer 1</title>
  <g id="kilometerek">
   <rect id="svg_3" height="1031.3" width="128.5" fill="#B3E0F4" y="23.699301" x="211.174104"/>
   <rect id="svg_4" height="27" width="165" fill="#FFFFFF" y="737.699301" x="193.574104"/>
   <line id="svg_5" y2="927.199301" x2="99.074104" y1="888.699301" x1="99.074104" stroke-miterlimit="10" stroke-linejoin="round" stroke-width="22" stroke="#AE8DCC" fill="none"/>
   <polyline id="svg_6" points="396.97412109375,683.6993713378906 396.97412109375,789.1993713378906 410.1741943359375,802.2994079589844 436.97412109375,802.2994079589844 450.3741455078125,788.9993591308594 450.3741455078125,766.6993713378906 126.3741455078125,766.6993713378906 126.3741455078125,927.1991882324219 " stroke-miterlimit="10" stroke-linejoin="round" stroke-width="22" stroke="#AE8DCC" fill="none"/>
   <line id="svg_7" y2="483.899301" x2="153.574104" y1="924.099301" x1="153.574104" stroke-miterlimit="10" stroke-linejoin="round" stroke-width="22" stroke="#9ECCA9" fill="none"/>
   <polyline id="svg_8" points="99.6741943359375,882.1991882324219 99.6741943359375,742.3994445800781 477.1741943359375,742.3994445800781 477.1741943359375,795.8994445800781 447.5740966796875,825.4994201660156 398.97412109375,825.4994201660156 369.7742919921875,796.2994079589844 369.7742919921875,720.6993713378906 369.7742919921875,684.4994201660156 " stroke-miterlimit="10" stroke-linejoin="round" stroke-width="22" stroke="#AE8DCC" fill="none"/>
   <line id="svg_9" y2="484.199301" x2="181.074104" y1="924.499301" x1="181.074104" stroke-miterlimit="10" stroke-linejoin="round" stroke-width="22" stroke="#9ECCA9" fill="none"/>
   <path id="svg_10" d="m237.574104,6.199301c-4.4,0 -8,3.6 -8,8l0,205c0,4.4 3.6,8 8,8l2,0c4.4,0 8,-3.6 8,-8l0,-42c0,-4.4 3.6,-8 8,-8l9,0c4.4,0 8,3.6 8,8l0,42c0,4.4 3.6,8 8,8l7,0c4.4,0 8,-3.6 8,-8l0,-205c0,-4.4 -3.6,-8 -8,-8l-50,0z" fill="#B6C695"/>
   <text x="-958.025896" y="-26.000699" id="svg_11" font-size="9.3993px" font-family="'MyriadPro-Light'" transform="matrix(1,0,0,1,1220.9248,530.1829) ">Margit-híd</text>
   <path id="svg_12" d="m315.574104,508.199301c0,4.4 -3.6,8 -8,8l-51,0c-4.4,0 -8,-3.6 -8,-8l0,-243c0,-4.4 3.6,-8 8,-8l51,0c4.4,0 8,3.6 8,8l0,243z" fill="#B6C695"/>
   <rect id="svg_13" height="27" width="165" fill="#FFFFFF" y="265.199301" x="193.574104"/>
   <rect id="svg_14" height="27" width="165" fill="#FFFFFF" y="466.599301" x="193.574104"/>
   <rect id="svg_15" height="27" width="165" fill="#FFFFFF" y="617.199301" x="193.574104"/>
   <rect id="svg_16" height="27" width="165" fill="#FFFFFF" y="683.199301" x="193.574104"/>
   <rect id="svg_17" height="27" width="165" fill="#FFFFFF" y="836.099301" x="193.574104"/>
   <rect id="svg_18" height="27" width="165" fill="#FFFFFF" y="934.499301" x="193.574104"/>
   <polyline id="svg_19" points="99.0740966796875,888.6991882324219 99.0740966796875,927.1991882324219 153.5740966796875,927.1991882324219 153.5740966796875,479.6993713378906 140.2742919921875,454.2993469238281 126.3741455078125,479.7993469238281 126.3741455078125,604.8994445800781 30.774169921875,604.8994445800781 85.874267578125,659.9993591308594 126.3741455078125,659.9993591308594 126.3741455078125,630.1993713378906 423.5740966796875,630.1993713378906 423.5740966796875,655.6993713378906 397.0740966796875,682.2994079589844 397.0740966796875,789.1993713378906 410.1741943359375,802.2994079589844 436.97412109375,802.2994079589844 436.97412109375,802.2994079589844 450.3741455078125,788.8994445800781 450.3741455078125,766.6993713378906 126.3741455078125,766.6993713378906 126.3741455078125,956.1991882324219 30.774169921875,956.1991882324219 30.774169921875,982.4991149902344 30.774169921875,999.2991638183594 53.274169921875,999.2991638183594 53.274169921875,979.7990417480469 162.5740966796875,979.7990417480469 162.5740966796875,951.2991638183594 181.0740966796875,928.1991882324219 181.0740966796875,71.69931030273438 99.0740966796875,71.69931030273438 99.0740966796875,135.69927978515625 126.0740966796875,135.69927978515625 126.0740966796875,178.69927978515625 153.7742919921875,201.69927978515625 153.7742919921875,226.69927978515625 100.0740966796875,226.69927978515625 48.0740966796875,278.6993103027344 282.0740966796875,278.6993103027344 282.0740966796875,479.6993713378906 423.5740966796875,479.9993591308594 423.5740966796875,449.1993713378906 397.0740966796875,449.1993713378906 397.0740966796875,377.8993225097656 369.6741943359375,377.8993225097656 369.6741943359375,796.2994079589844 398.874267578125,825.4994201660156 447.4742431640625,825.4994201660156 477.1741943359375,795.8994445800781 477.1741943359375,742.3994445800781 99.5740966796875,742.3994445800781 99.5740966796875,882.1991882324219 " stroke-miterlimit="10" stroke-linejoin="round" stroke-width="19" stroke="#e6e6e6" fill="none"/>
   <rect id="svg_95" height="94.6" width="175.5" fill="none" y="893.199301" x="359.274104"/>
   <g id="svg_145"/>
   <g id="svg_146"/>
   <g id="svg_147"/>
   <g id="svg_148">
    <rect id="svg_149" height="17.8" width="7.2" fill="#B3B3B3" y="671.999301" x="46.174104"/>
    <rect id="svg_150" height="17.8" width="3.6" fill="#e6e6e6" y="671.999301" x="49.874104"/>
    <g id="svg_151">
     <path id="svg_152" d="m49.774104,654.799301c-0.6,0 -1.1,0.7 -1.1,1.5c0,0.5 0.2,0.9 0.5,1.2l-0.5,0l-1.8,-4.5c-0.2,-0.4 -0.6,-0.6 -1,-0.5c-0.4,0.2 -0.6,0.6 -0.5,1l1.9,5c0.1,0.2 0.2,0.4 0.4,0.4l0,2.5l1,2.5l-2,8l3,0l0.1,-17.1c0,0 0,0 0,0z" fill="#4D4D4D"/>
     <polygon id="svg_153" points="49.4742431640625,649.3994445800781 48.3741455078125,650.0993957519531 46.1741943359375,649.6993713378906 45.774169921875,650.3994445800781 42.97412109375,650.7993469238281 45.4742431640625,652.4994201660156 45.97412109375,652.1993713378906 48.3741455078125,653.0993957519531 49.3741455078125,652.5993957519531 49.874267578125,652.6993713378906 49.874267578125,649.5993957519531 " fill="#4D4D4D"/>
     <path id="svg_154" d="m50.774104,663.999301l1,-2.5l0,-2.5c0.2,-0.1 0.3,-0.2 0.4,-0.4l1.9,-5c0,-0.1 0,-0.1 0,-0.2l1.3,0.4l-1.8,-2.4c0,-0.1 -1.6,-1.5 -1.6,-1.5l-0.7,0.5l-1.6,-0.7l0,3.1l2,0.6l0.6,-0.4l0.3,0.1c0,0 0,0 0,0l-1.8,4.5l-0.5,0c0.3,-0.3 0.5,-0.7 0.5,-1.2c0,-0.8 -0.5,-1.5 -1.1,-1.5l0,17.1l3,0l-1.9,-8z" fill="#666666"/>
    </g>
    <g id="svg_155">
     <polygon id="svg_156" points="84.2742919921875,725.4994201660156 57.774169921875,689.7993469238281 49.874267578125,689.7993469238281 38.97412109375,725.4994201660156 " fill="#97A87B"/>
     <polygon id="svg_157" points="15.274169921875,725.4994201660156 38.97412109375,725.4994201660156 49.874267578125,689.7993469238281 41.774169921875,689.7993469238281 " fill="#869666"/>
    </g>
    <rect id="svg_158" height="3.6" width="7.7" fill="#e6e6e6" y="686.199301" x="49.874104"/>
    <rect id="svg_159" height="3.6" width="7.7" fill="#B3B3B3" y="686.199301" x="41.774104"/>
   </g>
   <line id="svg_160" y2="725.499301" x2="93.374104" y1="725.499301" x1="6.174104" stroke-miterlimit="10" stroke-linejoin="round" stroke-linecap="round" stroke-width="2" stroke="#869666" fill="none"/>
   <g id="svg_161">
    <g id="svg_162">
     <g id="svg_163">
      <rect id="svg_164" height="13.2" width="45.4" fill="#D5C3AF" transform="matrix(-1,-4.496726e-11,4.496726e-11,-1,2938.8135,1143.2463) " y="591.000699" x="2404.725896"/>
      <rect id="svg_165" height="6.6" width="14.7" fill="#D5C3AF" transform="matrix(-1,-4.475987e-11,4.475987e-11,-1,2938.8135,1123.5107) " y="584.500699" x="2420.125896"/>
      <polygon id="svg_166" points="504.0740966796875,532.4994201660156 518.6741943359375,532.4994201660156 516.874267578125,527.4994201660156 505.874267578125,527.4994201660156 " fill="#75514D"/>
      <polygon id="svg_167" points="539.5740966796875,532.0993957519531 545.3741455078125,532.0993957519531 550.874267578125,537.1993713378906 534.0740966796875,537.1993713378906 " fill="#75514D"/>
      <g id="svg_168">
       <rect id="svg_169" height="15" width="16.7" fill="#E2DBD4" transform="matrix(-1,-4.487045e-11,4.487045e-11,-1,3000.9832,1141.4272) " y="589.200699" x="2450.125896"/>
       <polygon id="svg_170" points="550.874267578125,537.1993713378906 549.1741943359375,533.6993713378906 547.5740966796875,537.1993713378906 " fill="#E2DBD4"/>
       <polygon id="svg_171" points="537.3741455078125,537.1993713378906 535.7742919921875,533.6993713378906 534.0740966796875,537.1993713378906 " fill="#E2DBD4"/>
      </g>
      <g id="svg_172">
       <g id="svg_173">
        <polygon id="svg_174" points="534.0740966796875,538.9993591308594 532.5740966796875,536.7993469238281 530.97412109375,538.9993591308594 " fill="#75514D"/>
        <polygon id="svg_175" points="530.874267578125,538.9993591308594 529.2742919921875,536.7993469238281 527.6741943359375,538.9993591308594 " fill="#75514D"/>
        <polygon id="svg_176" points="527.5740966796875,538.9993591308594 526.0740966796875,536.7993469238281 524.4742431640625,538.9993591308594 " fill="#75514D"/>
        <polygon id="svg_177" points="524.3741455078125,538.9993591308594 522.7742919921875,536.7993469238281 521.2742919921875,538.9993591308594 " fill="#75514D"/>
        <polygon id="svg_178" points="521.0740966796875,538.9993591308594 519.5740966796875,536.7993469238281 517.97412109375,538.9993591308594 " fill="#75514D"/>
       </g>
       <g id="svg_179">
        <polygon id="svg_180" points="504.7742919921875,538.9993591308594 503.1741943359375,536.7993469238281 501.6741943359375,538.9993591308594 " fill="#75514D"/>
        <polygon id="svg_181" points="501.5740966796875,538.9993591308594 499.97412109375,536.7993469238281 498.3741455078125,538.9993591308594 " fill="#75514D"/>
        <polygon id="svg_182" points="498.2742919921875,538.9993591308594 496.7742919921875,536.7993469238281 495.1741943359375,538.9993591308594 " fill="#75514D"/>
        <polygon id="svg_183" points="495.0740966796875,538.9993591308594 493.4742431640625,536.7993469238281 491.874267578125,538.9993591308594 " fill="#75514D"/>
        <polygon id="svg_184" points="491.7742919921875,538.9993591308594 490.2742919921875,536.7993469238281 488.6741943359375,538.9993591308594 " fill="#75514D"/>
       </g>
      </g>
      <polygon id="svg_185" points="518.6741943359375,532.4994201660156 517.0740966796875,524.6993713378906 515.3741455078125,532.4994201660156 " fill="#D5C3AF"/>
      <polygon id="svg_186" points="507.3741455078125,532.4994201660156 505.6741943359375,524.6993713378906 504.0740966796875,532.4994201660156 " fill="#D5C3AF"/>
      <g id="svg_187">
       <g id="svg_188">
        <rect id="svg_189" height="15" width="3.3" fill="#E2DBD4" transform="matrix(-1,-4.521373e-11,4.521373e-11,-1,2948.5903,1141.4272) " y="589.200699" x="2430.625896"/>
        <polygon id="svg_190" points="517.874267578125,537.1993713378906 516.2742919921875,533.6993713378906 514.5740966796875,537.1993713378906 " fill="#E2DBD4"/>
       </g>
       <g id="svg_191">
        <rect id="svg_192" height="15" width="3.3" fill="#E2DBD4" transform="matrix(-1,-4.466262e-11,4.466262e-11,-1,2929.0366,1141.4272) " y="589.200699" x="2420.925896"/>
        <polygon id="svg_193" points="508.1741943359375,537.1993713378906 506.4742431640625,533.6993713378906 504.874267578125,537.1993713378906 " fill="#E2DBD4"/>
       </g>
      </g>
      <g id="svg_194">
       <rect id="svg_195" height="3.9" width="1.3" fill="#7C6A49" transform="matrix(-1,-4.586566e-11,4.586566e-11,-1,3010.3625,1136.1313) " y="592.100699" x="2462.525896"/>
       <rect id="svg_196" height="3.9" width="1.3" fill="#7C6A49" transform="matrix(-1,-4.16961e-11,4.16961e-11,-1,3004.1096,1136.1313) " y="592.100699" x="2459.425896"/>
       <rect id="svg_197" height="3.9" width="1.3" fill="#7C6A49" transform="matrix(-1,-4.586566e-11,4.586566e-11,-1,2997.8567,1136.1313) " y="592.100699" x="2456.325896"/>
       <rect id="svg_198" height="3.9" width="1.3" fill="#7C6A49" transform="matrix(-1,-4.30861e-11,4.30861e-11,-1,2991.6038,1136.1313) " y="592.100699" x="2453.125896"/>
      </g>
      <g id="svg_199">
       <rect id="svg_200" height="3.9" width="1.3" fill="#7C6A49" transform="matrix(-1,-4.30861e-11,4.30861e-11,-1,3010.3625,1148.6122) " y="598.400699" x="2462.525896"/>
       <rect id="svg_201" height="3.9" width="1.3" fill="#7C6A49" transform="matrix(-1,-4.16961e-11,4.16961e-11,-1,3004.1096,1148.6122) " y="598.400699" x="2459.425896"/>
       <rect id="svg_202" height="3.9" width="1.3" fill="#7C6A49" transform="matrix(-1,-4.725565e-11,4.725565e-11,-1,2997.8567,1148.6122) " y="598.400699" x="2456.325896"/>
       <rect id="svg_203" height="3.9" width="1.3" fill="#7C6A49" transform="matrix(-1,-4.30861e-11,4.30861e-11,-1,2991.6038,1148.6122) " y="598.400699" x="2453.125896"/>
      </g>
      <g id="svg_204">
       <rect id="svg_205" height="2.5" width="0.7" fill="#7C6A49" transform="matrix(-1,-4.542157e-11,4.542157e-11,-1,2979.6689,1135.704) " y="592.600699" x="2447.525896"/>
       <rect id="svg_206" height="2.5" width="0.7" fill="#7C6A49" transform="matrix(-1,-4.542157e-11,4.542157e-11,-1,2976.2249,1135.704) " y="592.600699" x="2445.825896"/>
       <rect id="svg_207" height="2.5" width="0.7" fill="#7C6A49" transform="matrix(-1,-4.542157e-11,4.542157e-11,-1,2972.781,1135.704) " y="592.600699" x="2444.025896"/>
       <rect id="svg_208" height="2.5" width="0.7" fill="#7C6A49" transform="matrix(-1,-4.037494e-11,4.037494e-11,-1,2969.3369,1135.704) " y="592.600699" x="2442.325896"/>
       <rect id="svg_209" height="2.5" width="0.7" fill="#7C6A49" transform="matrix(-1,-4.542157e-11,4.542157e-11,-1,2965.8835,1135.704) " y="592.600699" x="2440.625896"/>
       <rect id="svg_210" height="2.5" width="0.7" fill="#7C6A49" transform="matrix(-1,-4.542157e-11,4.542157e-11,-1,2962.4395,1135.704) " y="592.600699" x="2438.925896"/>
       <rect id="svg_211" height="2.5" width="0.7" fill="#7C6A49" transform="matrix(-1,-4.289825e-11,4.289825e-11,-1,2958.9954,1135.704) " y="592.600699" x="2437.125896"/>
      </g>
      <g id="svg_212">
       <rect id="svg_213" height="2.5" width="0.7" fill="#7C6A49" transform="matrix(-1,-4.542157e-11,4.542157e-11,-1,2919.8997,1135.704) " y="592.600699" x="2417.625896"/>
       <rect id="svg_214" height="2.5" width="0.7" fill="#7C6A49" transform="matrix(-1,-4.289825e-11,4.289825e-11,-1,2916.4556,1135.704) " y="592.600699" x="2415.925896"/>
       <rect id="svg_215" height="2.5" width="0.7" fill="#7C6A49" transform="matrix(-1,-4.289825e-11,4.289825e-11,-1,2913.0115,1135.704) " y="592.600699" x="2414.125896"/>
       <rect id="svg_216" height="2.5" width="0.7" fill="#7C6A49" transform="matrix(-1,-4.542157e-11,4.542157e-11,-1,2909.5674,1135.704) " y="592.600699" x="2412.425896"/>
       <rect id="svg_217" height="2.5" width="0.7" fill="#7C6A49" transform="matrix(-1,-4.542157e-11,4.542157e-11,-1,2906.114,1135.704) " y="592.600699" x="2410.725896"/>
       <rect id="svg_218" height="2.5" width="0.7" fill="#7C6A49" transform="matrix(-1,-4.542157e-11,4.542157e-11,-1,2902.6702,1135.704) " y="592.600699" x="2409.025896"/>
       <rect id="svg_219" height="2.5" width="0.7" fill="#7C6A49" transform="matrix(-1,-4.542157e-11,4.542157e-11,-1,2899.2261,1135.704) " y="592.600699" x="2407.325896"/>
      </g>
      <g id="svg_220">
       <rect id="svg_221" height="2.5" width="0.7" fill="#7C6A49" transform="matrix(-1,-4.794488e-11,4.794488e-11,-1,2942.4346,1135.704) " y="592.600699" x="2428.925896"/>
       <rect id="svg_222" height="2.5" width="0.7" fill="#7C6A49" transform="matrix(-1,-4.794488e-11,4.794488e-11,-1,2938.9905,1135.704) " y="592.600699" x="2427.125896"/>
       <rect id="svg_223" height="2.5" width="0.7" fill="#7C6A49" transform="matrix(-1,-4.794488e-11,4.794488e-11,-1,2935.5464,1135.704) " y="592.600699" x="2425.425896"/>
      </g>
      <g id="svg_224">
       <polygon id="svg_225" points="530.7742919921875,550.9993591308594 532.97412109375,550.9993591308594 532.97412109375,546.8994445800781 531.874267578125,545.5993957519531 530.7742919921875,546.8994445800781 " fill="#7C6A49"/>
       <polygon id="svg_226" points="527.97412109375,550.9993591308594 530.0740966796875,550.9993591308594 530.0740966796875,546.8994445800781 529.0740966796875,545.5993957519531 527.97412109375,546.8994445800781 " fill="#7C6A49"/>
       <polygon id="svg_227" points="525.1741943359375,550.9993591308594 527.2742919921875,550.9993591308594 527.2742919921875,546.8994445800781 526.1741943359375,545.5993957519531 525.1741943359375,546.8994445800781 " fill="#7C6A49"/>
       <polygon id="svg_228" points="522.2742919921875,550.9993591308594 524.3741455078125,550.9993591308594 524.3741455078125,546.8994445800781 523.3741455078125,545.5993957519531 522.2742919921875,546.8994445800781 " fill="#7C6A49"/>
       <polygon id="svg_229" points="519.4742431640625,550.9993591308594 521.5740966796875,550.9993591308594 521.5740966796875,546.8994445800781 520.4742431640625,545.5993957519531 519.4742431640625,546.8994445800781 " fill="#7C6A49"/>
       <g id="svg_230">
        <polygon id="svg_231" points="511.7742919921875,550.9993591308594 513.874267578125,550.9993591308594 513.874267578125,546.8994445800781 512.7742919921875,545.5993957519531 511.7742919921875,546.8994445800781 " fill="#7C6A49"/>
        <polygon id="svg_232" points="508.874267578125,550.9993591308594 510.97412109375,550.9993591308594 510.97412109375,546.8994445800781 509.97412109375,545.5993957519531 508.874267578125,546.8994445800781 " fill="#7C6A49"/>
       </g>
       <polygon id="svg_233" points="501.3741455078125,550.9993591308594 503.4742431640625,550.9993591308594 503.4742431640625,546.8994445800781 502.4742431640625,545.5993957519531 501.3741455078125,546.8994445800781 " fill="#7C6A49"/>
       <polygon id="svg_234" points="498.5740966796875,550.9993591308594 500.6741943359375,550.9993591308594 500.6741943359375,546.8994445800781 499.5740966796875,545.5993957519531 498.5740966796875,546.8994445800781 " fill="#7C6A49"/>
       <polygon id="svg_235" points="495.6741943359375,550.9993591308594 497.7742919921875,550.9993591308594 497.7742919921875,546.8994445800781 496.7742919921875,545.5993957519531 495.6741943359375,546.8994445800781 " fill="#7C6A49"/>
       <polygon id="svg_236" points="492.874267578125,550.9993591308594 494.97412109375,550.9993591308594 494.97412109375,546.8994445800781 493.874267578125,545.5993957519531 492.874267578125,546.8994445800781 " fill="#7C6A49"/>
       <polygon id="svg_237" points="489.97412109375,550.9993591308594 492.1741943359375,550.9993591308594 492.1741943359375,546.8994445800781 491.0740966796875,545.5993957519531 489.97412109375,546.8994445800781 " fill="#7C6A49"/>
      </g>
     </g>
     <rect id="svg_238" height="16.4" width="31.6" fill="#D5C3AF" y="535.799301" x="456.774104"/>
     <rect id="svg_239" height="10.4" width="17.2" fill="#E2DBD4" y="525.299301" x="463.974104"/>
     <g id="svg_240">
      <polygon id="svg_241" points="461.97412109375,535.7993469238281 463.4742431640625,533.4994201660156 464.874267578125,535.7993469238281 " fill="#D5C3AF"/>
      <polygon id="svg_242" points="464.97412109375,535.7993469238281 466.4742431640625,533.4994201660156 467.97412109375,535.7993469238281 " fill="#D5C3AF"/>
      <polygon id="svg_243" points="468.0740966796875,535.7993469238281 469.5740966796875,533.4994201660156 470.97412109375,535.7993469238281 " fill="#D5C3AF"/>
      <polygon id="svg_244" points="471.1741943359375,535.7993469238281 472.5740966796875,533.4994201660156 474.0740966796875,535.7993469238281 " fill="#D5C3AF"/>
      <polygon id="svg_245" points="474.1741943359375,535.7993469238281 475.6741943359375,533.4994201660156 477.0740966796875,535.7993469238281 " fill="#D5C3AF"/>
      <polygon id="svg_246" points="477.2742919921875,535.7993469238281 478.6741943359375,533.4994201660156 480.1741943359375,535.7993469238281 " fill="#D5C3AF"/>
      <polygon id="svg_247" points="480.2742919921875,535.7993469238281 481.7742919921875,533.4994201660156 483.2742919921875,535.7993469238281 " fill="#D5C3AF"/>
     </g>
     <polygon id="svg_248" points="471.6741943359375,512.7993469238281 472.5740966796875,502.3993835449219 473.4742431640625,512.7993469238281 " fill="#75514D"/>
     <g id="svg_249">
      <rect id="svg_250" height="3.4" width="1" fill="#7C6A49" y="545.599301" x="463.974104"/>
      <rect id="svg_251" height="3.4" width="1" fill="#7C6A49" y="545.599301" x="466.274104"/>
      <rect id="svg_252" height="3.4" width="1" fill="#7C6A49" y="545.599301" x="468.574104"/>
      <rect id="svg_253" height="3.4" width="1" fill="#7C6A49" y="545.599301" x="470.974104"/>
      <rect id="svg_254" height="3.4" width="1" fill="#7C6A49" y="545.599301" x="473.274104"/>
      <rect id="svg_255" height="3.4" width="1" fill="#7C6A49" y="545.599301" x="475.574104"/>
      <rect id="svg_256" height="3.4" width="1" fill="#7C6A49" y="545.599301" x="477.874104"/>
      <rect id="svg_257" height="3.4" width="1" fill="#7C6A49" y="545.599301" x="480.174104"/>
     </g>
     <g id="svg_258">
      <rect id="svg_259" height="13.2" width="45.4" fill="#D5C3AF" y="538.999301" x="411.374104"/>
      <rect id="svg_260" height="6.6" width="14.7" fill="#D5C3AF" y="532.499301" x="426.774104"/>
      <polygon id="svg_261" points="441.3741455078125,532.4994201660156 426.7742919921875,532.4994201660156 428.5740966796875,527.4994201660156 439.5740966796875,527.4994201660156 " fill="#75514D"/>
      <polygon id="svg_262" points="405.874267578125,532.0993957519531 400.0740966796875,532.0993957519531 394.5740966796875,537.1993713378906 411.3741455078125,537.1993713378906 " fill="#75514D"/>
      <g id="svg_263">
       <rect id="svg_264" height="15" width="16.7" fill="#E2DBD4" y="537.199301" x="394.574104"/>
       <polygon id="svg_265" points="394.5740966796875,537.1993713378906 396.2742919921875,533.6993713378906 397.874267578125,537.1993713378906 " fill="#E2DBD4"/>
       <polygon id="svg_266" points="408.0740966796875,537.1993713378906 409.6741943359375,533.6993713378906 411.3741455078125,537.1993713378906 " fill="#E2DBD4"/>
      </g>
      <g id="svg_267">
       <g id="svg_268">
        <polygon id="svg_269" points="411.3741455078125,538.9993591308594 412.874267578125,536.7993469238281 414.4742431640625,538.9993591308594 " fill="#75514D"/>
        <polygon id="svg_270" points="414.5740966796875,538.9993591308594 416.1741943359375,536.7993469238281 417.7742919921875,538.9993591308594 " fill="#75514D"/>
        <polygon id="svg_271" points="417.874267578125,538.9993591308594 419.3741455078125,536.7993469238281 420.97412109375,538.9993591308594 " fill="#75514D"/>
        <polygon id="svg_272" points="421.0740966796875,538.9993591308594 422.6741943359375,536.7993469238281 424.1741943359375,538.9993591308594 " fill="#75514D"/>
        <polygon id="svg_273" points="424.3741455078125,538.9993591308594 425.874267578125,536.7993469238281 427.4742431640625,538.9993591308594 " fill="#75514D"/>
       </g>
       <g id="svg_274">
        <polygon id="svg_275" points="440.6741943359375,538.9993591308594 442.2742919921875,536.7993469238281 443.7742919921875,538.9993591308594 " fill="#75514D"/>
        <polygon id="svg_276" points="443.874267578125,538.9993591308594 445.4742431640625,536.7993469238281 447.0740966796875,538.9993591308594 " fill="#75514D"/>
        <polygon id="svg_277" points="447.1741943359375,538.9993591308594 448.6741943359375,536.7993469238281 450.2742919921875,538.9993591308594 " fill="#75514D"/>
        <polygon id="svg_278" points="450.3741455078125,538.9993591308594 451.97412109375,536.7993469238281 453.5740966796875,538.9993591308594 " fill="#75514D"/>
        <polygon id="svg_279" points="453.6741943359375,538.9993591308594 455.1741943359375,536.7993469238281 456.7742919921875,538.9993591308594 " fill="#75514D"/>
       </g>
      </g>
      <polygon id="svg_280" points="426.7742919921875,532.4994201660156 428.3741455078125,524.6993713378906 430.0740966796875,532.4994201660156 " fill="#D5C3AF"/>
      <polygon id="svg_281" points="438.0740966796875,532.4994201660156 439.7742919921875,524.6993713378906 441.3741455078125,532.4994201660156 " fill="#D5C3AF"/>
      <g id="svg_282">
       <g id="svg_283">
        <rect id="svg_284" height="15" width="3.3" fill="#E2DBD4" y="537.199301" x="427.474104"/>
        <polygon id="svg_285" points="427.4742431640625,537.1993713378906 429.1741943359375,533.6993713378906 430.7742919921875,537.1993713378906 " fill="#E2DBD4"/>
       </g>
       <g id="svg_286">
        <rect id="svg_287" height="15" width="3.3" fill="#E2DBD4" y="537.199301" x="437.274104"/>
        <polygon id="svg_288" points="437.2742919921875,537.1993713378906 438.97412109375,533.6993713378906 440.5740966796875,537.1993713378906 " fill="#E2DBD4"/>
       </g>
      </g>
      <g id="svg_289">
       <rect id="svg_290" height="3.9" width="1.3" fill="#7C6A49" y="540.099301" x="397.674104"/>
       <rect id="svg_291" height="3.9" width="1.3" fill="#7C6A49" y="540.099301" x="400.774104"/>
       <rect id="svg_292" height="3.9" width="1.3" fill="#7C6A49" y="540.099301" x="403.874104"/>
       <rect id="svg_293" height="3.9" width="1.3" fill="#7C6A49" y="540.099301" x="406.974104"/>
      </g>
      <g id="svg_294">
       <rect id="svg_295" height="3.9" width="1.3" fill="#7C6A49" y="546.399301" x="397.674104"/>
       <rect id="svg_296" height="3.9" width="1.3" fill="#7C6A49" y="546.399301" x="400.774104"/>
       <rect id="svg_297" height="3.9" width="1.3" fill="#7C6A49" y="546.399301" x="403.874104"/>
       <rect id="svg_298" height="3.9" width="1.3" fill="#7C6A49" y="546.399301" x="406.974104"/>
      </g>
      <g id="svg_299">
       <rect id="svg_300" height="2.5" width="0.7" fill="#7C6A49" y="540.599301" x="413.274104"/>
       <rect id="svg_301" height="2.5" width="0.7" fill="#7C6A49" y="540.599301" x="414.974104"/>
       <rect id="svg_302" height="2.5" width="0.7" fill="#7C6A49" y="540.599301" x="416.674104"/>
       <rect id="svg_303" height="2.5" width="0.7" fill="#7C6A49" y="540.599301" x="418.474104"/>
       <rect id="svg_304" height="2.5" width="0.7" fill="#7C6A49" y="540.599301" x="420.174104"/>
       <rect id="svg_305" height="2.5" width="0.7" fill="#7C6A49" y="540.599301" x="421.874104"/>
       <rect id="svg_306" height="2.5" width="0.7" fill="#7C6A49" y="540.599301" x="423.574104"/>
      </g>
      <g id="svg_307">
       <rect id="svg_308" height="2.5" width="0.7" fill="#7C6A49" y="540.599301" x="443.174104"/>
       <rect id="svg_309" height="2.5" width="0.7" fill="#7C6A49" y="540.599301" x="444.874104"/>
       <rect id="svg_310" height="2.5" width="0.7" fill="#7C6A49" y="540.599301" x="446.574104"/>
       <rect id="svg_311" height="2.5" width="0.7" fill="#7C6A49" y="540.599301" x="448.274104"/>
       <rect id="svg_312" height="2.5" width="0.7" fill="#7C6A49" y="540.599301" x="450.074104"/>
       <rect id="svg_313" height="2.5" width="0.7" fill="#7C6A49" y="540.599301" x="451.774104"/>
       <rect id="svg_314" height="2.5" width="0.7" fill="#7C6A49" y="540.599301" x="453.474104"/>
      </g>
      <g id="svg_315">
       <rect id="svg_316" height="2.5" width="0.7" fill="#7C6A49" y="540.599301" x="431.874104"/>
       <rect id="svg_317" height="2.5" width="0.7" fill="#7C6A49" y="540.599301" x="433.574104"/>
       <rect id="svg_318" height="2.5" width="0.7" fill="#7C6A49" y="540.599301" x="435.374104"/>
      </g>
      <g id="svg_319">
       <polygon id="svg_320" points="414.6741943359375,550.9993591308594 412.4742431640625,550.9993591308594 412.4742431640625,546.8994445800781 413.5740966796875,545.5993957519531 414.6741943359375,546.8994445800781 " fill="#7C6A49"/>
       <polygon id="svg_321" points="417.4742431640625,550.9993591308594 415.3741455078125,550.9993591308594 415.3741455078125,546.8994445800781 416.3741455078125,545.5993957519531 417.4742431640625,546.8994445800781 " fill="#7C6A49"/>
       <polygon id="svg_322" points="420.2742919921875,550.9993591308594 418.1741943359375,550.9993591308594 418.1741943359375,546.8994445800781 419.2742919921875,545.5993957519531 420.2742919921875,546.8994445800781 " fill="#7C6A49"/>
       <polygon id="svg_323" points="423.1741943359375,550.9993591308594 421.0740966796875,550.9993591308594 421.0740966796875,546.8994445800781 422.0740966796875,545.5993957519531 423.1741943359375,546.8994445800781 " fill="#7C6A49"/>
       <polygon id="svg_324" points="425.97412109375,550.9993591308594 423.874267578125,550.9993591308594 423.874267578125,546.8994445800781 424.97412109375,545.5993957519531 425.97412109375,546.8994445800781 " fill="#7C6A49"/>
       <g id="svg_325">
        <polygon id="svg_326" points="433.6741943359375,550.9993591308594 431.5740966796875,550.9993591308594 431.5740966796875,546.8994445800781 432.6741943359375,545.5993957519531 433.6741943359375,546.8994445800781 " fill="#7C6A49"/>
        <polygon id="svg_327" points="436.5740966796875,550.9993591308594 434.4742431640625,550.9993591308594 434.4742431640625,546.8994445800781 435.4742431640625,545.5993957519531 436.5740966796875,546.8994445800781 " fill="#7C6A49"/>
       </g>
       <polygon id="svg_328" points="444.0740966796875,550.9993591308594 441.97412109375,550.9993591308594 441.97412109375,546.8994445800781 442.97412109375,545.5993957519531 444.0740966796875,546.8994445800781 " fill="#7C6A49"/>
       <polygon id="svg_329" points="446.874267578125,550.9993591308594 444.7742919921875,550.9993591308594 444.7742919921875,546.8994445800781 445.874267578125,545.5993957519531 446.874267578125,546.8994445800781 " fill="#7C6A49"/>
       <polygon id="svg_330" points="449.7742919921875,550.9993591308594 447.6741943359375,550.9993591308594 447.6741943359375,546.8994445800781 448.6741943359375,545.5993957519531 449.7742919921875,546.8994445800781 " fill="#7C6A49"/>
       <polygon id="svg_331" points="452.5740966796875,550.9993591308594 450.4742431640625,550.9993591308594 450.4742431640625,546.8994445800781 451.5740966796875,545.5993957519531 452.5740966796875,546.8994445800781 " fill="#7C6A49"/>
       <polygon id="svg_332" points="455.4742431640625,550.9993591308594 453.2742919921875,550.9993591308594 453.2742919921875,546.8994445800781 454.3741455078125,545.5993957519531 455.4742431640625,546.8994445800781 " fill="#7C6A49"/>
      </g>
     </g>
     <g id="svg_333">
      <path id="svg_334" d="m465.574104,539.699301c0,-0.6 -0.5,-1 -1.1,-1c-0.6,0 -1,0.5 -1.1,1l0,0l0,4.1l2.1,0l0.1,-4.1l0,0z" fill="#7C6A49"/>
      <path id="svg_335" d="m468.774104,539.699301c0,-0.6 -0.5,-1 -1.1,-1c-0.6,0 -1,0.5 -1.1,1l0,0l0,4.1l2.1,0l0.1,-4.1l0,0z" fill="#7C6A49"/>
      <path id="svg_336" d="m471.974104,539.699301c0,-0.6 -0.5,-1 -1.1,-1c-0.6,0 -1,0.5 -1.1,1l0,0l0,4.1l2.1,0l0.1,-4.1l0,0z" fill="#7C6A49"/>
      <path id="svg_337" d="m475.274104,539.699301c0,-0.6 -0.5,-1 -1.1,-1c-0.6,0 -1,0.5 -1.1,1l0,0l0,4.1l2.1,0l0.1,-4.1l0,0z" fill="#7C6A49"/>
      <path id="svg_338" d="m478.474104,539.699301c0,-0.6 -0.5,-1 -1.1,-1c-0.6,0 -1,0.5 -1.1,1l0,0l0,4.1l2.1,0l0.1,-4.1l0,0z" fill="#7C6A49"/>
      <path id="svg_339" d="m481.674104,539.699301c0,-0.6 -0.5,-1 -1.1,-1c-0.6,0 -1,0.5 -1.1,1l0,0l0,4.1l2.1,0l0.1,-4.1l0,0z" fill="#7C6A49"/>
     </g>
     <path id="svg_340" d="m480.474104,525.299301c0,-4 -2,-12.9 -7.9,-12.9s-7.9,8.9 -7.9,12.9l15.8,0z" fill="#75514D"/>
     <g id="svg_341">
      <circle id="svg_342" r="1" cy="527.899301" cx="465.874104" fill="#D5C3AF"/>
      <circle id="svg_343" r="1" cy="527.899301" cx="469.274104" fill="#D5C3AF"/>
      <circle id="svg_344" r="1" cy="527.899301" cx="472.574104" fill="#D5C3AF"/>
      <circle id="svg_345" r="1" cy="527.899301" cx="475.974104" fill="#D5C3AF"/>
      <circle id="svg_346" r="1" cy="527.899301" cx="479.274104" fill="#D5C3AF"/>
     </g>
     <g id="svg_347">
      <polygon id="svg_348" points="463.97412109375,525.3994445800781 464.874267578125,521.2994079589844 465.6741943359375,525.3994445800781 " fill="#E2DBD4"/>
      <polygon id="svg_349" points="467.0740966796875,525.3994445800781 467.97412109375,521.2994079589844 468.7742919921875,525.3994445800781 " fill="#E2DBD4"/>
      <polygon id="svg_350" points="470.1741943359375,525.3994445800781 471.0740966796875,521.2994079589844 471.874267578125,525.3994445800781 " fill="#E2DBD4"/>
      <polygon id="svg_351" points="473.2742919921875,525.3994445800781 474.1741943359375,521.2994079589844 474.97412109375,525.3994445800781 " fill="#E2DBD4"/>
      <polygon id="svg_352" points="476.3741455078125,525.3994445800781 477.2742919921875,521.2994079589844 478.0740966796875,525.3994445800781 " fill="#E2DBD4"/>
      <polygon id="svg_353" points="479.4742431640625,525.3994445800781 480.3741455078125,521.2994079589844 481.1741943359375,525.3994445800781 " fill="#E2DBD4"/>
     </g>
     <g id="svg_354">
      <rect id="svg_355" height="22.7" width="5.8" fill="#E2DBD4" y="529.499301" x="456.174104"/>
      <polygon id="svg_356" points="456.874267578125,529.4994201660156 459.1741943359375,512.7993469238281 461.3741455078125,529.4994201660156 " fill="#E2DBD4"/>
      <g id="svg_357">
       <rect id="svg_358" height="22.7" width="5.8" fill="#E2DBD4" y="529.499301" x="483.274104"/>
       <polygon id="svg_359" points="483.874267578125,529.4994201660156 486.1741943359375,512.7993469238281 488.3741455078125,529.4994201660156 " fill="#E2DBD4"/>
      </g>
     </g>
    </g>
    <line id="svg_360" y2="552.199301" x2="559.674104" y1="552.199301" x1="385.774104" stroke-miterlimit="10" stroke-linejoin="round" stroke-linecap="round" stroke-width="2" stroke="#7C6A49" fill="none"/>
   </g>
   <path id="svg_361" d="m334.774104,1017.499301l-19.5,0c-0.5,-0.3 -0.9,-0.8 -0.9,-1.4c0,-0.6 0.4,-1.2 0.9,-1.4l5,0c1.4,0 2.5,-1.1 2.5,-2.5c0,-1.4 -1.1,-2.5 -2.5,-2.5l-53,0c-1.4,0 -2.5,1.1 -2.5,2.5c0,1.4 1.1,2.5 2.5,2.5l23.9,0c0.5,0.3 0.9,0.8 0.9,1.4c0,0.6 -0.4,1.2 -0.9,1.4l-11.6,0c-1.4,0 -2.5,1.1 -2.5,2.5c0,1.4 1.1,2.5 2.5,2.5l1.9,0l2.6,0c1,0 1.8,0.8 1.8,1.8c0,0.7 -0.4,1.3 -1,1.6l-12.6,0c-1.4,0 -2.5,1.1 -2.5,2.5c0,1.4 1.1,2.5 2.5,2.5l46.3,0c1.4,0 2.5,-1.1 2.5,-2.5c0,-1.4 -1.1,-2.5 -2.5,-2.5l-16.2,0c-0.6,-0.3 -1,-0.9 -1,-1.6c0,-1 0.8,-1.8 1.8,-1.8l4.6,0l27.2,0c1.4,0 2.5,-1.1 2.5,-2.5c-0.2,-1.4 -1.3,-2.5 -2.7,-2.5z" fill="#9FD0E2"/>
   <path id="svg_362" d="m223.674104,895.399301l19.5,0c0.5,0.3 0.9,0.8 0.9,1.4c0,0.6 -0.4,1.2 -0.9,1.4l-5,0c-1.4,0 -2.5,1.1 -2.5,2.5s1.1,2.5 2.5,2.5l53,0c1.4,0 2.5,-1.1 2.5,-2.5s-1.1,-2.5 -2.5,-2.5l-23.9,0c-0.5,-0.3 -0.9,-0.8 -0.9,-1.4c0,-0.6 0.4,-1.2 0.9,-1.4l11.6,0c1.4,0 2.5,-1.1 2.5,-2.5s-1.1,-2.5 -2.5,-2.5l-1.9,0l-2.6,0c-1,0 -1.8,-0.8 -1.8,-1.8c0,-0.7 0.4,-1.3 1,-1.6l12.6,0c1.4,0 2.5,-1.1 2.5,-2.5s-1.1,-2.5 -2.5,-2.5l-46.2,0c-1.4,0 -2.5,1.1 -2.5,2.5s1.1,2.5 2.5,2.5l16.2,0c0.6,0.3 1,0.9 1,1.6c0,1 -0.8,1.8 -1.8,1.8l-4.6,0l-27.2,0c-1.4,0 -2.5,1.1 -2.5,2.5s1.3,2.5 2.6,2.5z" fill="#9FD0E2"/>
   <path id="svg_363" d="m263.174104,665.699301l19.5,0c0.5,0.3 0.9,0.8 0.9,1.4c0,0.6 -0.4,1.2 -0.9,1.4l-5,0c-1.4,0 -2.5,1.1 -2.5,2.5c0,1.4 1.1,2.5 2.5,2.5l53,0c1.4,0 2.5,-1.1 2.5,-2.5c0,-1.4 -1.1,-2.5 -2.5,-2.5l-23.9,0c-0.5,-0.3 -0.9,-0.8 -0.9,-1.4c0,-0.6 0.4,-1.2 0.9,-1.4l11.6,0c1.4,0 2.5,-1.1 2.5,-2.5s-1.1,-2.5 -2.5,-2.5l-1.9,0l-2.6,0c-1,0 -1.8,-0.8 -1.8,-1.8c0,-0.7 0.4,-1.3 1,-1.6l12.6,0c1.4,0 2.5,-1.1 2.5,-2.5c0,-1.4 -1.1,-2.5 -2.5,-2.5l-46.3,0c-1.4,0 -2.5,1.1 -2.5,2.5c0,1.4 1.1,2.5 2.5,2.5l16.2,0c0.6,0.3 1,0.9 1,1.6c0,1 -0.8,1.8 -1.8,1.8l-4.6,0l-27.2,0c-1.4,0 -2.5,1.1 -2.5,2.5s1.4,2.5 2.7,2.5z" fill="#9FD0E2"/>
   <path id="svg_364" d="m287.774104,547.399301l-19.5,0c-0.5,0.3 -0.9,0.8 -0.9,1.4c0,0.6 0.4,1.2 0.9,1.4l5,0c1.4,0 2.5,1.1 2.5,2.5s-1.1,2.5 -2.5,2.5l-53,0c-1.4,0 -2.5,-1.1 -2.5,-2.5s1.1,-2.5 2.5,-2.5l23.9,0c0.5,-0.3 0.9,-0.8 0.9,-1.4c0,-0.6 -0.4,-1.2 -0.9,-1.4l-11.6,0c-1.4,0 -2.5,-1.1 -2.5,-2.5s1.1,-2.5 2.5,-2.5l1.9,0l2.6,0c1,0 1.8,-0.8 1.8,-1.8c0,-0.7 -0.4,-1.3 -1,-1.6l-12.6,0c-1.4,0 -2.5,-1.1 -2.5,-2.5c0,-1.4 1.1,-2.5 2.5,-2.5l46.3,0c1.4,0 2.5,1.1 2.5,2.5c0,1.4 -1.1,2.5 -2.5,2.5l-16.2,0c-0.6,0.3 -1,0.9 -1,1.6c0,1 0.8,1.8 1.8,1.8l4.6,0l27.2,0c1.4,0 2.5,1.1 2.5,2.5s-1.4,2.5 -2.7,2.5z" fill="#9FD0E2"/>
   <g id="svg_365">
    <path id="svg_366" d="m278.574104,1012.299301c1.4,0 2.6,-1.2 2.6,-2.6l-5.1,0c-0.1,1.4 1.1,2.6 2.5,2.6z" fill="#FFFFFF"/>
    <path id="svg_367" d="m283.674104,1012.299301c1.4,0 2.6,-1.2 2.6,-2.6l-5.1,0c-0.1,1.4 1.1,2.6 2.5,2.6z" fill="#FFFFFF"/>
    <path id="svg_368" d="m288.874104,1012.299301c1.4,0 2.6,-1.2 2.6,-2.6l-5.1,0c-0.1,1.4 1,2.6 2.5,2.6z" fill="#FFFFFF"/>
    <path id="svg_369" d="m293.974104,1012.299301c1.4,0 2.6,-1.2 2.6,-2.6l-5.1,0c-0.1,1.4 1.1,2.6 2.5,2.6z" fill="#FFFFFF"/>
    <path id="svg_370" d="m299.174104,1012.299301c1.4,0 2.6,-1.2 2.6,-2.6l-5.1,0c-0.1,1.4 1,2.6 2.5,2.6z" fill="#FFFFFF"/>
    <path id="svg_371" d="m301.674104,1009.699301c0,1.4 1.2,2.6 2.6,2.6s2.6,-1.2 2.6,-2.6l-5.2,0z" fill="#FFFFFF"/>
   </g>
   <g id="svg_372">
    <polygon id="svg_373" points="275.97412109375,1009.7991638183594 306.874267578125,1009.7991638183594 307.6741943359375,1006.8991394042969 272.4742431640625,1006.8991394042969 " fill="#DBA671"/>
    <polygon id="svg_374" points="303.874267578125,998.9991149902344 262.874267578125,998.9991149902344 264.97412109375,1000.7991638183594 305.6741943359375,1000.7991638183594 " fill="#DBA671"/>
    <polygon id="svg_375" points="305.6741943359375,1000.7991638183594 264.97412109375,1000.7991638183594 272.4742431640625,1006.8991394042969 307.6741943359375,1006.8991394042969 308.5740966796875,1003.5990905761719 " fill="#662D91"/>
    <circle id="svg_376" r="1.5" cy="1003.699301" cx="273.574104" fill="#57BCFC"/>
    <circle id="svg_377" r="1.5" cy="1003.699301" cx="279.074104" fill="#57BCFC"/>
    <circle id="svg_378" r="1.5" cy="1003.699301" cx="284.574104" fill="#57BCFC"/>
    <circle id="svg_379" r="1.5" cy="1003.699301" cx="302.974104" fill="#57BCFC"/>
    <g id="svg_380">
     <g id="svg_381">
      <g id="svg_382">
       <rect id="svg_383" height="0.8" width="12.2" fill="#662D91" y="996.199301" x="289.074104"/>
      </g>
      <g id="svg_384">
       <rect id="svg_385" height="2.5" width="0.8" fill="#662D91" y="996.599301" x="292.774104"/>
      </g>
      <g id="svg_386">
       <rect id="svg_387" height="2.5" width="0.8" fill="#662D91" y="996.599301" x="295.374104"/>
      </g>
      <g id="svg_388">
       <rect id="svg_389" height="2.5" width="0.8" fill="#662D91" y="996.599301" x="298.074104"/>
      </g>
     </g>
     <g id="svg_390">
      <polygon id="svg_391" points="290.3741455078125,998.9991149902344 267.7742919921875,998.9991149902344 273.1741943359375,992.6990661621094 288.0740966796875,992.6990661621094 " fill="#DBA671"/>
      <g id="svg_392">
       <polygon id="svg_393" points="284.4742431640625,994.0990905761719 277.874267578125,994.0990905761719 275.5740966796875,997.6990661621094 283.2742919921875,996.2991638183594 " fill="#57BCFC"/>
       <g id="svg_394">
        <polygon id="svg_395" points="273.3741455078125,994.0990905761719 270.4742431640625,998.5990905761719 272.7742919921875,998.1990661621094 275.3741455078125,994.0990905761719 " fill="#FFFFFF"/>
        <polygon id="svg_396" points="276.5740966796875,994.0990905761719 274.0740966796875,997.9991149902344 275.5740966796875,997.6990661621094 277.874267578125,994.0990905761719 " fill="#FFFFFF"/>
       </g>
       <g id="svg_397">
        <polygon id="svg_398" points="275.3741455078125,994.0990905761719 272.7742919921875,998.1990661621094 274.0740966796875,997.9991149902344 276.5740966796875,994.0990905761719 " fill="#57BCFC"/>
        <polygon id="svg_399" points="271.97412109375,994.0990905761719 267.7742919921875,998.9991149902344 270.4742431640625,998.5990905761719 273.3741455078125,994.0990905761719 " fill="#57BCFC"/>
       </g>
      </g>
     </g>
    </g>
   </g>
   <g id="svg_400">
    <g id="svg_401">
     <g id="svg_402">
      <path id="svg_403" d="m385.574104,67.099301c-0.8,0.8 -2,0.8 -2.8,0l-12.8,-12.8c-0.8,-0.8 -0.8,-2 0,-2.8c0.8,-0.8 2,-0.8 2.8,0l12.7,12.7c0.9,0.8 0.9,2.1 0.1,2.9z" fill="#DBA671"/>
     </g>
     <g id="svg_404">
      <path id="svg_405" d="m380.374104,75.999301c-0.5,0.5 -1.2,0.7 -1.9,0.5l-9.6,-2.6c-1.1,-0.3 -1.7,-1.4 -1.4,-2.4c0.3,-1.1 1.4,-1.7 2.4,-1.4l9.6,2.6c1.1,0.3 1.7,1.4 1.4,2.4c-0.1,0.4 -0.3,0.7 -0.5,0.9z" fill="#DBA671"/>
     </g>
     <g id="svg_406">
      <path id="svg_407" d="m385.574104,95.399301l-7,7c-0.8,0.8 -2,0.8 -2.8,0c-0.8,-0.8 -0.8,-2 0,-2.8l7,-7c0.8,-0.8 2,-0.8 2.8,0c0.8,0.7 0.8,2 0,2.8z" fill="#DBA671"/>
     </g>
     <g id="svg_408">
      <path id="svg_409" d="m407.474104,110.099301c-0.2,0.2 -0.5,0.4 -0.9,0.5c-1.1,0.3 -2.2,-0.3 -2.4,-1.4l-2.6,-9.6c-0.3,-1.1 0.3,-2.2 1.4,-2.4c1.1,-0.3 2.2,0.3 2.4,1.4l2.6,9.6c0.2,0.7 0,1.4 -0.5,1.9z" fill="#DBA671"/>
     </g>
     <g id="svg_410">
      <path id="svg_411" d="m428.574104,88.899301c-0.5,0.5 -1.2,0.7 -1.9,0.5l-9.6,-2.6c-1.1,-0.3 -1.7,-1.4 -1.4,-2.4c0.3,-1.1 1.4,-1.7 2.4,-1.4l9.6,2.6c1.1,0.3 1.7,1.4 1.4,2.4c-0.1,0.4 -0.2,0.7 -0.5,0.9z" fill="#DBA671"/>
     </g>
     <g id="svg_412">
      <path id="svg_413" d="m420.874104,60.099301l-7,7c-0.8,0.8 -2,0.8 -2.8,0s-0.8,-2 0,-2.8l7,-7c0.8,-0.8 2,-0.8 2.8,0s0.8,2 0,2.8z" fill="#DBA671"/>
     </g>
     <g id="svg_414">
      <path id="svg_415" d="m394.474104,61.899301c-0.2,0.2 -0.5,0.4 -0.9,0.5c-1.1,0.3 -2.2,-0.3 -2.4,-1.4l-2.6,-9.6c-0.3,-1.1 0.3,-2.2 1.4,-2.4c1.1,-0.3 2.2,0.3 2.4,1.4l2.6,9.6c0.3,0.7 0,1.4 -0.5,1.9z" fill="#DBA671"/>
     </g>
     <g id="svg_416">
      <path id="svg_417" d="m380.374104,86.399301c-0.2,0.2 -0.5,0.4 -0.9,0.5l-17.4,4.7c-1.1,0.3 -2.2,-0.3 -2.4,-1.4c-0.3,-1.1 0.3,-2.2 1.4,-2.4l17.4,-4.7c1.1,-0.3 2.2,0.3 2.4,1.4c0.2,0.7 0,1.4 -0.5,1.9z" fill="#DBA671"/>
     </g>
     <g id="svg_418">
      <path id="svg_419" d="m389.874104,117.899301c-0.5,0.5 -1.2,0.7 -1.9,0.5c-1.1,-0.3 -1.7,-1.4 -1.4,-2.4l4.7,-17.4c0.3,-1.1 1.4,-1.7 2.4,-1.4c1.1,0.3 1.7,1.4 1.4,2.4l-4.7,17.4c-0.1,0.4 -0.3,0.7 -0.5,0.9z" fill="#DBA671"/>
     </g>
     <g id="svg_420">
      <path id="svg_421" d="m426.574104,108.099301c-0.8,0.8 -2,0.8 -2.8,0l-12.7,-12.7c-0.8,-0.8 -0.8,-2 0,-2.8s2,-0.8 2.8,0l12.7,12.7c0.8,0.7 0.8,2 0,2.8z" fill="#DBA671"/>
     </g>
     <g id="svg_422">
      <path id="svg_423" d="m436.374104,71.399301c-0.2,0.2 -0.5,0.4 -0.9,0.5l-17.4,4.7c-1.1,0.3 -2.2,-0.3 -2.4,-1.4c-0.3,-1.1 0.3,-2.2 1.4,-2.4l17.4,-4.7c1.1,-0.3 2.2,0.3 2.4,1.4c0.2,0.7 0,1.4 -0.5,1.9z" fill="#DBA671"/>
     </g>
     <g id="svg_424">
      <path id="svg_425" d="m404.874104,61.899301c-0.5,0.5 -1.2,0.7 -1.9,0.5c-1.1,-0.3 -1.7,-1.4 -1.4,-2.4l4.7,-17.4c0.3,-1.1 1.4,-1.7 2.4,-1.4c1.1,0.3 1.7,1.4 1.4,2.4l-4.7,17.4c-0.1,0.3 -0.3,0.6 -0.5,0.9z" fill="#DBA671"/>
     </g>
    </g>
    <g id="svg_426">
     <path id="svg_427" d="m382.474104,79.799301c0,8.7 7.1,15.8 15.8,15.8l0,-31.6c-8.7,0 -15.8,7.1 -15.8,15.8z" fill="#DBA671"/>
     <path id="svg_428" d="m414.074104,79.799301c0,-8.7 -7.1,-15.8 -15.8,-15.8l0,31.6c8.7,0 15.8,-7.1 15.8,-15.8z" fill="#EFC08E"/>
    </g>
   </g>
   <path id="svg_429" d="m316.974104,254.199301c1.5,0.1 2.5,0 3.4,-1.6c0.9,-1.6 1.2,-5.9 1.1,-6.6c-0.1,-0.6 0.6,-2.2 1.4,-3.9c0.7,-1.7 0.9,-2.6 1.8,-3.1c0.9,-0.6 3.9,-2.1 7.8,-4.4s4.9,-7 4.2,-7.7s-3.1,2.2 -3.8,2.6c-0.6,0.4 -2.9,-0.1 -3.5,-0.2s-5.3,1.6 -6.5,0.8c-1.2,-0.8 -2.2,-5.9 -2.6,-7.6c-0.4,-1.7 -3.9,-10 -4,-12.9s3,-3.4 4.8,-4.8c1.8,-1.5 2,-4.4 2,-4.4s-0.2,-0.9 -1.1,0.1c-0.9,1 -2.2,1.6 -3.1,1.7c-0.9,0.1 -3.5,-0.8 -4.2,0.8l-0.3,0.1c-0.9,-1.5 -3.4,-0.4 -4.3,-0.5c-0.9,-0.1 -2.3,-0.5 -3.3,-1.4s-1.1,0 -1.1,0s0.5,2.9 2.4,4.2c1.9,1.3 5.1,1.5 5.2,4.4s-2.7,11.4 -2.9,13.2s-0.8,6.9 -2,7.8c-1.1,0.9 -5.9,-0.5 -6.5,-0.2c-0.6,0.2 -2.9,0.9 -3.5,0.5c-0.6,-0.4 -3.4,-3 -4,-2.3c-0.6,0.7 0.8,5.3 4.9,7.3c4,2 7.2,3.3 8.1,3.8c0.9,0.5 1.1,1.3 2,3s1.7,3.1 1.7,3.8s0.6,4.9 1.7,6.5c1.1,1.5 2.1,1.5 3.6,1.3l0.6,-0.3z" fill="#ACD9EA"/>
   <path id="svg_430" d="m234.174104,607.399301" stroke-miterlimit="10" stroke-width="0.75" stroke="#D5C3AF" fill="none"/>
   <path id="svg_431" d="m234.174104,593.899301" stroke-miterlimit="10" stroke-width="0.75" stroke="#D5C3AF" fill="none"/>
   <path id="svg_432" d="m230.174104,607.399301" stroke-miterlimit="10" stroke-width="0.75" stroke="#D5C3AF" fill="none"/>
   <path id="svg_433" d="m230.174104,596.599301" stroke-miterlimit="10" stroke-width="0.75" stroke="#D5C3AF" fill="none"/>
   <g id="svg_434">
    <g id="svg_435">
     <path id="svg_436" d="m275.474104,608.599301c0,0 -0.1,0 -0.1,0c-15.3,-0.1 -35.8,-15.5 -36.6,-16.2l0.9,-1.2c0.2,0.2 20.9,15.8 35.7,15.9c0,0 0.1,0 0.1,0c14.8,0 31.7,-15.3 31.9,-15.5l1,1.1c-0.8,0.6 -17.6,15.9 -32.9,15.9z" fill="#D5C3AF"/>
    </g>
    <g id="svg_437">
     <path id="svg_438" d="m211.374104,607.599301c-0.1,0 -0.2,0 -0.2,0l0,-1.5c0.1,0 0.1,0 0.2,0c9.2,0 17.2,-14.7 17.3,-14.8l1.3,0.7c-0.4,0.6 -8.5,15.6 -18.6,15.6z" fill="#D5C3AF"/>
    </g>
    <g id="svg_439">
     <rect id="svg_440" height="23.1" width="10.8" fill="#E8E3DF" y="585.499301" x="228.774104"/>
     <rect id="svg_441" height="5.3" width="10.8" fill="#C6B4A3" y="603.199301" x="228.774104"/>
     <rect id="svg_442" height="8.9" width="13.6" fill="#D5C3AF" y="608.499301" x="227.374104"/>
     <polygon id="svg_443" points="240.5740966796875,591.5993957519531 227.874267578125,591.5993957519531 227.2742919921875,588.5993957519531 241.1741943359375,588.5993957519531 " fill="#D5C3AF"/>
    </g>
    <g id="svg_444">
     <path id="svg_445" d="m339.574104,607.599301c-14.2,0 -21.3,-15 -21.6,-15.7l1.4,-0.6c0.1,0.1 7.1,14.8 20.3,14.8l-0.1,1.5z" fill="#D5C3AF"/>
    </g>
    <g id="svg_446">
     <rect id="svg_447" height="23.1" width="10.8" fill="#E8E3DF" y="585.499301" x="307.774104"/>
     <rect id="svg_448" height="5.3" width="10.8" fill="#C6B4A3" y="603.199301" x="307.774104"/>
     <rect id="svg_449" height="8.9" width="13.6" fill="#D5C3AF" y="608.499301" x="306.374104"/>
     <polygon id="svg_450" points="319.5740966796875,591.5993957519531 306.874267578125,591.5993957519531 306.2742919921875,588.5993957519531 320.1741943359375,588.5993957519531 " fill="#D5C3AF"/>
    </g>
    <g id="svg_451">
     <g id="svg_452">
      <rect id="svg_453" height="13.5" width="0.8" fill="#D5C3AF" y="593.899301" x="241.774104"/>
     </g>
     <g id="svg_454">
      <rect id="svg_455" height="10.7" width="0.8" fill="#D5C3AF" y="596.599301" x="245.774104"/>
     </g>
     <g id="svg_456">
      <rect id="svg_457" height="8.6" width="0.8" fill="#D5C3AF" y="598.799301" x="249.774104"/>
     </g>
     <g id="svg_458">
      <rect id="svg_459" height="6.2" width="0.8" fill="#D5C3AF" y="601.199301" x="253.774104"/>
     </g>
    </g>
    <g id="svg_460">
     <g id="svg_461">
      <rect id="svg_462" height="13.5" width="0.8" fill="#D5C3AF" y="593.899301" x="305.874104"/>
     </g>
     <g id="svg_463">
      <rect id="svg_464" height="10.7" width="0.8" fill="#D5C3AF" y="596.599301" x="301.874104"/>
     </g>
     <g id="svg_465">
      <rect id="svg_466" height="8.6" width="0.8" fill="#D5C3AF" y="598.799301" x="297.874104"/>
     </g>
     <g id="svg_467">
      <rect id="svg_468" height="6.2" width="0.8" fill="#D5C3AF" y="601.199301" x="293.874104"/>
     </g>
    </g>
    <g id="svg_469">
     <g id="svg_470">
      <rect id="svg_471" height="10.9" width="0.8" fill="#D5C3AF" y="596.499301" x="225.874104"/>
     </g>
     <g id="svg_472">
      <rect id="svg_473" height="6.2" width="0.8" fill="#D5C3AF" y="601.199301" x="221.874104"/>
     </g>
    </g>
    <g id="svg_474">
     <g id="svg_475">
      <rect id="svg_476" height="10.9" width="0.8" fill="#D5C3AF" y="596.499301" x="320.874104"/>
     </g>
     <g id="svg_477">
      <rect id="svg_478" height="6.2" width="0.8" fill="#D5C3AF" y="601.199301" x="324.874104"/>
     </g>
    </g>
    <rect id="svg_479" height="1.9" width="128.5" fill="#D5C3AF" y="606.899301" x="211.074104"/>
   </g>
   <g id="svg_488">
    <g id="svg_489">
     <path id="svg_490" d="m73.174104,858.799301l-10.6,24.3c0,0 0,0 0,0c0.4,0.2 0.8,0 1,-0.4l9.4,-21.4c0.4,-0.1 0.8,-0.3 1,-0.8c0.2,-0.6 -0.1,-1.4 -0.8,-1.7z" fill="#665B56"/>
     <path id="svg_491" d="m73.174104,858.799301c-0.7,-0.3 -1.5,0 -1.8,0.7c-0.2,0.4 -0.1,0.9 0.1,1.2l-9.4,21.4c-0.2,0.4 0,0.8 0.4,1l10.7,-24.3l0,0z" fill="#534741"/>
    </g>
    <g id="svg_492">
     <path id="svg_493" d="m84.974104,866.299301c0,0 -2.3,-0.5 -3.6,-0.9l-1.4,3.3c1.3,0.4 3.6,0.9 3.6,0.9l1.4,-3.3z" fill="#E6E6E6"/>
     <path id="svg_494" d="m76.674104,866.899301l1.4,-3.3c-1.1,-0.7 -2.2,-1.4 -3.2,-1.9l-1.4,3.3c1,0.4 2.1,1.2 3.2,1.9z" fill="#E6E6E6"/>
     <path id="svg_495" d="m79.874104,868.699301l-1.5,3.3c1.3,0.4 3.6,0.9 3.6,0.9l1.5,-3.3c0,0.1 -2.3,-0.5 -3.6,-0.9z" fill="#534741"/>
     <path id="svg_496" d="m75.174104,870.199301l1.5,-3.3c-1.1,-0.7 -2.2,-1.4 -3.2,-1.9l-1.5,3.3c1.1,0.5 2.2,1.2 3.2,1.9z" fill="#534741"/>
     <path id="svg_497" d="m78.374104,872.099301l-1.5,3.4c2,1 3.2,1.2 3.6,1.2l1.6,-3.7c0,0 -2.4,-0.5 -3.7,-0.9z" fill="#E6E6E6"/>
     <path id="svg_498" d="m71.974104,868.299301l-1.6,3.5c1.1,0.6 2.2,1.2 3.3,1.8l1.5,-3.5c-1,-0.6 -2.1,-1.3 -3.2,-1.8z" fill="#E6E6E6"/>
     <path id="svg_499" d="m79.774104,868.699301c0,0 0.1,0 0,0l1.5,-3.3c0,0 0,0 0,0c-0.7,-0.2 -1.9,-1 -3.1,-1.9l-1.4,3.3c1.2,0.9 2.3,1.7 3,1.9z" fill="#534741"/>
     <path id="svg_500" d="m78.374104,871.999301c0,0 0,0.1 0,0l1.5,-3.3c0,0 0,0 0,0c-0.7,-0.2 -1.9,-1 -3.1,-1.9l-1.5,3.3c1.2,0.9 2.4,1.7 3.1,1.9z" fill="#E6E6E6"/>
     <path id="svg_501" d="m78.374104,871.999301c-0.7,-0.2 -1.9,-1 -3.1,-1.9l-1.5,3.5c1.1,0.7 2.2,1.3 3,1.7c0.1,0 0.1,0 0.2,0.1l1.4,-3.4c0,0.1 0,0 0,0z" fill="#534741"/>
     <path id="svg_502" d="m69.974104,864.099301c0.1,0 1.2,-0.2 3.5,0.9l1.4,-3.3c-2.3,-1.1 -3.5,-0.9 -3.5,-0.9s-0.6,1.5 -1.4,3.3z" fill="#534741"/>
     <path id="svg_503" d="m71.974104,868.299301l1.5,-3.3c-2.3,-1 -3.4,-0.9 -3.5,-0.9c-0.5,1.1 -1,2.2 -1.4,3.3c0,0 1.2,-0.1 3.4,0.9z" fill="#E6E6E6"/>
     <path id="svg_504" d="m68.474104,867.399301c-0.2,0.4 -0.4,0.8 -0.5,1.2c-0.3,0.7 -0.6,1.3 -0.9,2c1,0.2 2.2,0.6 3.3,1.2l1.6,-3.5c-2.2,-1 -3.4,-0.9 -3.5,-0.9z" fill="#534741"/>
    </g>
   </g>
  </g>
 </g>
</svg>