<?xml version="1.0" encoding="utf-8"?>
<!-- Generator: Adobe Illustrator 23.0.1, SVG Export Plug-In . SVG Version: 6.00 Build 0)  -->
<svg version="1.0" xmlns="http://www.w3.org/2000/svg" xmlns:xlink="http://www.w3.org/1999/xlink" x="0px" y="0px"
	 viewBox="0 0 1920 1803" enable-background="new 0 0 1920 1803" xml:space="preserve">
<g id="forrás" display="none">
	
		<image display="inline" overflow="visible" opacity="0.5" width="1000" height="1914" xlink:href="bp_maraton_utvonal.jpg"  transform="matrix(0.8015 0 0 0.8015 455 101)">
	</image>
</g>
<g id="egyeb">
	<rect y="1081" fill="#E6E6E6" width="1920" height="103.8"/>
</g>
<g id="terkep">
	<rect x="1169.2" y="49.7" fill="#B3E0F4" width="128.5" height="1031.3"/>
	<rect x="1151.6" y="763.7" fill="#FFFFFF" width="165" height="27"/>
	
		<line fill="none" stroke="#AE8DCC" stroke-width="22" stroke-linejoin="round" stroke-miterlimit="10" x1="1057.1" y1="914.7" x2="1057.1" y2="953.2"/>
	<g>
		<path fill="#AE8DCC" d="M1095.4,953.2h-22V792.7c0-6.1,4.9-11,11-11H1344v-72h22v72h42.4c6.1,0,11,4.9,11,11V815
			c0,2.9-1.2,5.7-3.2,7.8l-13.4,13.4c-2.1,2.1-4.9,3.2-7.8,3.2h-26.9c-2.9,0-5.7-1.2-7.8-3.2l-13.2-13.2c-2.1-2.1-3.2-4.9-3.2-7.8
			v-11.5h-248.6V953.2z M1372.7,817.3h17.8l6.9-6.9v-6.7H1366v7L1372.7,817.3z"/>
	</g>
	<g>
		<rect x="1100.6" y="509.9" fill="#9ECCA9" width="22" height="440.2"/>
	</g>
	<g>
		<path fill="#AE8DCC" d="M1068.7,908.2h-22V768.4c0-6.1,4.9-11,11-11h259.1v-46.9h22v46.9h96.4c6.1,0,11,4.9,11,11v53.4
			c0,2.9-1.2,5.7-3.2,7.8l-29.6,29.6c-2.1,2.1-4.9,3.2-7.8,3.2H1357c-2.9,0-5.7-1.2-7.8-3.2l-29.2-29.2c-2.1-2.1-3.2-4.9-3.2-7.8
			v-42.9h-248.1V908.2z M1361.6,840.5h39.4l23.2-23.2v-37.9h-85.4v38.3L1361.6,840.5z"/>
	</g>
	<g>
		<rect x="1128.1" y="510.2" fill="#9ECCA9" width="22" height="440.2"/>
	</g>
	<path fill="#B6C695" d="M1195.6,32.2c-4.4,0-8,3.6-8,8v205c0,4.4,3.6,8,8,8h2c4.4,0,8-3.6,8-8v-42c0-4.4,3.6-8,8-8h9
		c4.4,0,8,3.6,8,8v42c0,4.4,3.6,8,8,8h7c4.4,0,8-3.6,8-8v-205c0-4.4-3.6-8-8-8H1195.6z"/>
	<text transform="matrix(1 0 0 1 1220.9248 530.1829)" font-family="'MyriadPro-Light'" font-size="9.3993px">Margit-híd</text>
	<path fill="#B6C695" d="M1273.6,534.2c0,4.4-3.6,8-8,8h-51c-4.4,0-8-3.6-8-8v-243c0-4.4,3.6-8,8-8h51c4.4,0,8,3.6,8,8V534.2z"/>
	<rect x="1151.6" y="291.2" fill="#FFFFFF" width="165" height="27"/>
	<rect x="1151.6" y="492.6" fill="#FFFFFF" width="165" height="27"/>
	<rect x="1151.6" y="643.2" fill="#FFFFFF" width="165" height="27"/>
	<rect x="1151.6" y="709.2" fill="#FFFFFF" width="165" height="27"/>
	<rect x="1163.9" y="862.1" fill="#FFFFFF" width="139" height="27"/>
	<rect x="1166.3" y="960.5" fill="#FFFFFF" width="134.3" height="27"/>
	<g>
		<path fill="#E6E6E6" d="M1011.3,1034.8h-22.6c-5.2,0-9.5-4.3-9.5-9.5v-43.1c0-5.2,4.3-9.5,9.5-9.5h86.1v-10h-17.8
			c-5.2,0-9.5-4.3-9.5-9.5v-38.5h19v29h8.3v-151c0-5.2,4.3-9.5,9.5-9.5h17.8v-5.2h-35v130.2h-19V768.4c0-5.2,4.3-9.5,9.5-9.5h44.5
			v-93.3h-8.3V686c0,5.2-4.3,9.5-9.5,9.5h-40.5c-2.5,0-4.9-1-6.7-2.8L982,637.6c-2.7-2.7-3.5-6.8-2.1-10.4c1.5-3.5,4.9-5.9,8.8-5.9
			h86.1V505.8c0-1.6,0.4-3.2,1.2-4.6l13.9-25.5c1.7-3.1,4.9-4.9,8.3-4.9c0,0,0,0,0.1,0c3.5,0,6.7,2,8.3,5.1l13.3,25.3
			c0.7,1.4,1.1,2.9,1.1,4.4v141h8.5V314.2h-123.5c-3.8,0-7.3-2.3-8.8-5.9c-1.5-3.5-0.7-7.6,2.1-10.4l52-52c1.8-1.8,4.2-2.8,6.7-2.8
			h44.2v-11l-24.2-20.2c-2.2-1.8-3.4-4.5-3.4-7.3v-33.5h-17.5c-5.2,0-9.5-4.3-9.5-9.5v-64c0-5.2,4.3-9.5,9.5-9.5h82
			c5.2,0,9.5,4.3,9.5,9.5v197.5h91.5c5.2,0,9.5,4.3,9.5,9.5v191.5l68.6,0.2v-92.5c0-5.2,4.3-9.5,9.5-9.5h27.3c5.2,0,9.5,4.3,9.5,9.5
			v61.8h17.1c5.2,0,9.5,4.3,9.5,9.5V506c0,2.5-1,4.9-2.8,6.7c-1.8,1.8-4.2,2.8-6.7,2.8c0,0,0,0,0,0l-44.4-0.1v131.3h44.4
			c5.2,0,9.5,4.3,9.5,9.5v25.5c0,2.5-1,4.9-2.8,6.7l-23.8,23.8v46.7h70.6c5.2,0,9.5,4.3,9.5,9.5v53.4c0,2.5-1,4.9-2.8,6.7
			l-29.7,29.6c-1.8,1.8-4.2,2.8-6.7,2.8h-48.6c-2.5,0-4.9-1-6.7-2.8L1321,829c-1.8-1.8-2.8-4.2-2.8-6.7v-20.2h-169.6v152
			c0,2.2-0.7,4.3-2.1,5.9l-16.4,20.5v25.2c0,5.2-4.3,9.5-9.5,9.5h-99.8v10C1020.8,1030.5,1016.6,1034.8,1011.3,1034.8z
			 M998.3,1015.8h3.6v-10c0-5.2,4.3-9.5,9.5-9.5h99.8v-19c0-2.2,0.7-4.3,2.1-5.9l16.4-20.5V802.2h-8.5v151c0,5.2-4.3,9.5-9.5,9.5
			h-17.8v19.5c0,5.2-4.3,9.5-9.5,9.5h-86.1V1015.8z M1093.9,943.7h8.3V802.2h-8.3V943.7z M1360.8,842h40.8l24.1-24.1v-40h-61.1v5.2
			h43.8c5.2,0,9.5,4.3,9.5,9.5v22.3c0,2.5-1,4.9-2.8,6.7l-13.2,13.2c-1.7,1.8-4.1,2.9-6.7,2.9c-0.1,0-0.1,0-0.2,0h-26.8
			c-2.5,0-4.9-1-6.7-2.8l-13.1-13.1c-1.8-1.8-2.8-4.2-2.8-6.7v-13h-8.3v16.2L1360.8,842z M1372.1,818.8h19l7.8-7.8v-8.8h-34.3v9.1
			L1372.1,818.8z M1337.2,783.2h8.3v-5.2h-8.3V783.2z M1148.6,783.2h169.6v-5.2h-169.6V783.2z M1121.1,783.2h8.5v-5.2h-8.5V783.2z
			 M1337.2,758.9h8.3v-50.7c0-2.5,1-4.9,2.8-6.7l23.8-23.8v-12.1h-34.9V758.9z M1148.6,758.9h169.6v-93.3h-169.6V758.9z
			 M1121.1,758.9h8.5v-93.3h-8.5V758.9z M1047.8,676.5h27v-20.4c0-5.2,4.3-9.5,9.5-9.5h17.8V508l-4-7.6l-4.3,7.8v122.6
			c0,5.2-4.3,9.5-9.5,9.5h-72.7L1047.8,676.5z M1148.6,646.7h169.6V515.3l-78.1-0.2c-5.2,0-9.5-4.3-9.5-9.5V314.2h-82V646.7z
			 M1337.2,496.4l34.9,0.1v-11.8h-17.1c-5.2,0-9.5-4.3-9.5-9.5v-61.8h-8.3V496.4z M1029.1,295.2h100.6v-188h-63v45h17.5
			c5.2,0,9.5,4.3,9.5,9.5v38.5l24.2,20.2c2.2,1.8,3.4,4.5,3.4,7.3v25c0,5.2-4.3,9.5-9.5,9.5h-49.7L1029.1,295.2z"/>
	</g>
	<g>
		<text transform="matrix(1 0 0 1 1185.6079 135.0734)"><tspan x="0" y="0" fill="#4D4D4D" font-family="'Raleway-Regular'" font-size="16px">Hajógyári</tspan><tspan x="13.1" y="21" fill="#4D4D4D" font-family="'Raleway-Regular'" font-size="16px">sziget</tspan></text>
	</g>
	<g>
		<text transform="matrix(1 0 0 1 994.303 924.2139)" fill="#4D4D4D" font-family="'Raleway-Regular'" font-size="16px">rajt</text>
	</g>
	<g>
		<text transform="matrix(1 0 0 1 994.6873 906.4961)" fill="#4D4D4D" font-family="'Raleway-Regular'" font-size="16px">cél</text>
	</g>
	<g>
		<text transform="matrix(1 0 0 1 1179.4088 826.41)" fill="#4D4D4D" font-family="'Raleway-Regular'" font-size="16px">Szabadság híd</text>
	</g>
	<rect x="455" y="88.6" fill="none" width="512" height="79"/>
	<text transform="matrix(1 0 0 1 455 113.011)"><tspan x="0" y="0" font-family="'RobotoSlab-Bold'" font-size="32px">Így futott az ország –</tspan><tspan x="0" y="38.4" font-family="'RobotoSlab-Bold'" font-size="32px">Budapest Maraton 2018</tspan></text>
	<rect x="455" y="183" fill="none" width="500" height="102.2"/>
	<text transform="matrix(1 0 0 1 454.9956 194.6605)"><tspan x="0" y="0" font-family="'Raleway-Regular'" font-size="16px">Még csak a felénél járok és kiköpöm a tüdőm. Vajon hol tart most a </tspan><tspan x="0" y="21" font-family="'Raleway-Regular'" font-size="16px">mezőny eleje és mennyien lehetnek mögöttem? A lényeg, hogy </tspan><tspan x="0" y="42" font-family="'Raleway-Regular'" font-size="16px">célba érjek, de azért kiváncsi vagyok, hogy a korosztályom hogyan </tspan><tspan x="0" y="63" font-family="'Raleway-Regular'" font-size="16px">mozgott hozzám képest. A versenyen rögzített részidők alapján új </tspan><tspan x="0" y="84" font-family="'Raleway-Regular'" font-size="16px">perspektívából mutatjuk a 33. Budapest Marton egyéni futóit.</tspan></text>
	<g>
		<rect x="455" y="357.1" fill="none" width="500" height="110.9"/>
		<text transform="matrix(1 0 0 1 455 368.7786)"><tspan x="0" y="0" font-family="'Raleway-Regular'" font-size="16px">Minden kis pont egy-egy futót jelöl. Az alábbi kapcsolók </tspan><tspan x="0" y="21" font-family="'Raleway-Regular'" font-size="16px">segítségével tetszőlegesen szűrheted a mezőnyt. Ha ott voltál ok</tspan><tspan x="482.5" y="21" font-family="'Raleway-Regular'" font-size="16px">-</tspan><tspan x="0" y="42" font-family="'Raleway-Regular'" font-size="16px">tóber elején a rakparton, rajtszámod megadásával visszajátszhatod </tspan><tspan x="0" y="63" font-family="'Raleway-Regular'" font-size="16px">futásod. Ha csak lélekben futottál együtt a többiekkel, akkor az </tspan><tspan x="0" y="84" font-family="'Raleway-Regular'" font-size="16px">átlagos tempód megadása után láthatod, hogyan szerepeltél volna.</tspan></text>
	</g>
	<text transform="matrix(1 0 0 1 455 779.8249)" font-family="'Raleway-Regular'" font-size="28px">2:51:23</text>
	<g>
		<text transform="matrix(1 0 0 1 986.0453 380.7613)" fill="#4D4D4D" font-family="'Raleway-Regular'" font-size="16px">a verseny útvonala</text>
	</g>
	<text transform="matrix(1 0 0 1 463.5162 1108.2035)" fill="#4D4D4D" font-family="'Roboto-Regular'" font-size="14px">ötlet: Berliner Morgenpost</text>
	<text transform="matrix(1 0 0 1 463.5162 1129.1379)" fill="#4D4D4D" font-family="'Roboto-Regular'" font-size="14px">impresszum</text>
	<g>
		<rect x="1307" y="919.2" fill="none" width="177.7" height="99.5"/>
		<text transform="matrix(1 0 0 1 1342.2585 932.841)"><tspan x="0" y="0" fill="#4D4D4D" font-family="'Raleway-Regular'" font-size="16px">A színnel jelölt </tspan><tspan x="-30.5" y="21" fill="#4D4D4D" font-family="'Raleway-Regular'" font-size="16px">szakaszok ugyanazt az </tspan><tspan x="-24.5" y="42" fill="#4D4D4D" font-family="'Raleway-Regular'" font-size="16px">utat jelölik, itt kétszer </tspan><tspan x="-16.7" y="63" fill="#4D4D4D" font-family="'Raleway-Regular'" font-size="16px">haladnak el a futók</tspan></text>
	</g>
	<circle fill="#4D4D4D" cx="467.1" cy="1137.6" r="1"/>
	<circle fill="#4D4D4D" cx="467.1" cy="1145.7" r="1"/>
	<circle fill="#4D4D4D" cx="467.1" cy="1153.8" r="1"/>
	<circle fill="#4D4D4D" cx="467.1" cy="1162" r="1"/>
	<g>
		<g>
			<g>
				<g>
					<path fill="#7BC5F8" d="M523.6,324.8c0,2.8-2.3,5.1-5.1,5.1h-19.7c-2.8,0-5.1-2.3-5.1-5.1v-19.7c0-2.8,2.3-5.1,5.1-5.1h19.7
						c2.8,0,5.1,2.3,5.1,5.1V324.8z"/>
				</g>
				<g>
					<polygon fill="#FFFFFF" points="519.1,306.7 519.1,306.7 519.1,306.7 					"/>
					<path fill="#FFFFFF" d="M518.3,308.8c-0.5,0.1-0.8,0.1-0.8,0.1l0-0.1c0.4-0.3,1.5-1.4,1.6-1.9c0.1-0.2,0-0.3,0-0.3l-1.4,0.6
						l-1.1,0.5l0,0c-0.8-0.8-2-1.4-3.3-1.4c-2.4,0-4.3,1.7-4.3,3.8c0,0.4,0.1,1.1,0.2,1.4c0,0.1,0-0.1,0,0c-1.5,0-3.5-0.7-5.2-1.6
						c-3.4-1.7-3.7-3-3.7-3c-0.5,0.6-0.8,2.5-0.3,4c0.4,1,1.6,1.8,1.6,1.8l0,0c0,0-0.5,0-1.1-0.2c-0.6-0.2-0.8-0.4-0.8-0.4
						c-0.3,0.8,0.3,2.3,1.5,3.3c0.7,0.6,1.9,1,1.9,1l-1.9,0.1c-0.1,1.9,4,3,4,3l0,0c-1.2,0.9-2.6,1.5-4.1,1.5
						c-0.8,0-1.5-0.1-2.2-0.3c2,1.6,4.5,2.7,7.2,2.6c7.2-0.4,11.3-6.6,11.5-12.7l0,0c0,0,0.3-0.2,1.1-0.9c0.7-0.7,1.2-1.6,1.2-1.6
						S518.7,308.7,518.3,308.8z"/>
					<path fill="#FFFFFF" d="M519.1,306.7C519.1,306.8,519.1,306.7,519.1,306.7L519.1,306.7z"/>
				</g>
			</g>
			<g>
				<path fill="#395398" d="M485.1,324.8c0,2.8-2.3,5.1-5.1,5.1h-19.7c-2.8,0-5.1-2.3-5.1-5.1v-19.7c0-2.8,2.3-5.1,5.1-5.1H480
					c2.8,0,5.1,2.3,5.1,5.1V324.8z"/>
				<path fill="#FFFFFF" d="M475.7,329.9v-11.5h3.9l0.6-4.5h-4.4v-2.9c0-1.3,0.4-2.2,2.2-2.2l2.4,0v-4c-0.4-0.1-1.8-0.2-3.5-0.2
					c-3.4,0-5.8,2.1-5.8,5.9v3.3h-3.9v4.5h3.9v11.5H475.7L475.7,329.9z"/>
			</g>
			<g>
				
					<radialGradient id="SVGID_1_" cx="537.2449" cy="323.4214" r="60.9887" fx="518.4326" fy="320.6887" gradientTransform="matrix(0.6534 -0.757 0.6147 0.5306 -12.6027 558.513)" gradientUnits="userSpaceOnUse">
					<stop  offset="0" style="stop-color:#F9ED32"/>
					<stop  offset="6.147725e-02" style="stop-color:#F8D939"/>
					<stop  offset="0.1874" style="stop-color:#F5A54D"/>
					<stop  offset="0.365" style="stop-color:#F0536C"/>
					<stop  offset="0.4486" style="stop-color:#EE2A7B"/>
					<stop  offset="0.5994" style="stop-color:#9E2AA7"/>
					<stop  offset="0.7418" style="stop-color:#5B2ACD"/>
					<stop  offset="0.86" style="stop-color:#2A2AE8"/>
					<stop  offset="0.9496" style="stop-color:#0B2AF9"/>
					<stop  offset="1" style="stop-color:#002AFF"/>
				</radialGradient>
				<path fill="url(#SVGID_1_)" d="M562.1,324.8c0,2.8-2.3,5.1-5.1,5.1h-19.7c-2.8,0-5.1-2.3-5.1-5.1v-19.7c0-2.8,2.3-5.1,5.1-5.1
					H557c2.8,0,5.1,2.3,5.1,5.1V324.8z"/>
				<g>
					<g>
						<path fill="#FFFFFF" d="M551.9,326.8h-9.6c-4.2,0-7.7-3.4-7.7-7.7v-8.4c0-4.2,3.5-7.7,7.7-7.7h9.6c4.2,0,7.7,3.4,7.7,7.7v8.4
							C559.6,323.4,556.1,326.8,551.9,326.8z M542.3,304.7c-3.3,0-6,2.7-6,6v8.4c0,3.3,2.7,6,6,6h9.6c3.3,0,6-2.7,6-6v-8.4
							c0-3.3-2.7-6-6-6H542.3z"/>
					</g>
					<g>
						<path fill="#FFFFFF" d="M547.1,321.8c-3.8,0-6.8-3.1-6.8-6.8c0-3.8,3.1-6.8,6.8-6.8c3.8,0,6.8,3.1,6.8,6.8
							C554,318.7,550.9,321.8,547.1,321.8z M547.1,309.8c-2.8,0-5.1,2.3-5.1,5.1c0,2.8,2.3,5.1,5.1,5.1c2.8,0,5.1-2.3,5.1-5.1
							C552.3,312.1,549.9,309.8,547.1,309.8z"/>
					</g>
					<g>
						<path fill="#FFFFFF" d="M555.3,308.3c0,0.8-0.6,1.4-1.4,1.4c-0.8,0-1.4-0.6-1.4-1.4c0-0.8,0.6-1.4,1.4-1.4
							C554.6,306.9,555.3,307.5,555.3,308.3z"/>
					</g>
				</g>
			</g>
		</g>
	</g>
	<rect x="0" fill="#E6E6E6" width="1920" height="50"/>
	<g>
	</g>
	<g>
	</g>
	<g>
	</g>
	<g>
		<rect x="1004.2" y="698" fill="#B3B3B3" width="7.2" height="17.8"/>
		<rect x="1007.9" y="698" fill="#CCCCCC" width="3.6" height="17.8"/>
		<g>
			<path fill="#4D4D4D" d="M1007.8,680.8c-0.6,0-1.1,0.7-1.1,1.5c0,0.5,0.2,0.9,0.5,1.2h-0.5l-1.8-4.5c-0.2-0.4-0.6-0.6-1-0.5
				c-0.4,0.2-0.6,0.6-0.5,1l1.9,5c0.1,0.2,0.2,0.4,0.4,0.4v2.5l1,2.5l-2,8h3L1007.8,680.8C1007.8,680.8,1007.8,680.8,1007.8,680.8z"
				/>
			<polygon fill="#4D4D4D" points="1007.5,675.4 1006.4,676.1 1004.2,675.7 1003.8,676.4 1001,676.8 1003.5,678.5 1004,678.2 
				1006.4,679.1 1007.4,678.6 1007.9,678.7 1007.9,675.6 			"/>
			<path fill="#666666" d="M1008.8,690l1-2.5V685c0.2-0.1,0.3-0.2,0.4-0.4l1.9-5c0-0.1,0-0.1,0-0.2l1.3,0.4l-1.8-2.4
				c0-0.1-1.6-1.5-1.6-1.5l-0.7,0.5l-1.6-0.7v3.1l2,0.6l0.6-0.4l0.3,0.1c0,0,0,0,0,0l-1.8,4.5h-0.5c0.3-0.3,0.5-0.7,0.5-1.2
				c0-0.8-0.5-1.5-1.1-1.5V698h3L1008.8,690z"/>
		</g>
		<g>
			<polygon fill="#97A87B" points="1042.3,751.5 1015.8,715.8 1007.9,715.8 997,751.5 			"/>
			<polygon fill="#869666" points="973.3,751.5 997,751.5 1007.9,715.8 999.8,715.8 			"/>
		</g>
		<rect x="1007.9" y="712.2" fill="#CCCCCC" width="7.7" height="3.6"/>
		<rect x="999.8" y="712.2" fill="#B3B3B3" width="7.7" height="3.6"/>
	</g>
	
		<line fill="none" stroke="#869666" stroke-width="2" stroke-linecap="round" stroke-linejoin="round" stroke-miterlimit="10" x1="964.2" y1="751.5" x2="1051.4" y2="751.5"/>
	<g>
		<g>
			<g>
				
					<rect x="1446.7" y="565" transform="matrix(-1 -4.496726e-11 4.496726e-11 -1 2938.8135 1143.2463)" fill="#D5C3AF" width="45.4" height="13.2"/>
				
					<rect x="1462.1" y="558.5" transform="matrix(-1 -4.475987e-11 4.475987e-11 -1 2938.8135 1123.5107)" fill="#D5C3AF" width="14.7" height="6.6"/>
				<polygon fill="#75514D" points="1462.1,558.5 1476.7,558.5 1474.9,553.5 1463.9,553.5 				"/>
				<polygon fill="#75514D" points="1497.6,558.1 1503.4,558.1 1508.9,563.2 1492.1,563.2 				"/>
				<g>
					
						<rect x="1492.1" y="563.2" transform="matrix(-1 -4.487045e-11 4.487045e-11 -1 3000.9832 1141.4272)" fill="#E2DBD4" width="16.7" height="15"/>
					<polygon fill="#E2DBD4" points="1508.9,563.2 1507.2,559.7 1505.6,563.2 					"/>
					<polygon fill="#E2DBD4" points="1495.4,563.2 1493.8,559.7 1492.1,563.2 					"/>
				</g>
				<g>
					<g>
						<polygon fill="#75514D" points="1492.1,565 1490.6,562.8 1489,565 						"/>
						<polygon fill="#75514D" points="1488.9,565 1487.3,562.8 1485.7,565 						"/>
						<polygon fill="#75514D" points="1485.6,565 1484.1,562.8 1482.5,565 						"/>
						<polygon fill="#75514D" points="1482.4,565 1480.8,562.8 1479.3,565 						"/>
						<polygon fill="#75514D" points="1479.1,565 1477.6,562.8 1476,565 						"/>
					</g>
					<g>
						<polygon fill="#75514D" points="1462.8,565 1461.2,562.8 1459.7,565 						"/>
						<polygon fill="#75514D" points="1459.6,565 1458,562.8 1456.4,565 						"/>
						<polygon fill="#75514D" points="1456.3,565 1454.8,562.8 1453.2,565 						"/>
						<polygon fill="#75514D" points="1453.1,565 1451.5,562.8 1449.9,565 						"/>
						<polygon fill="#75514D" points="1449.8,565 1448.3,562.8 1446.7,565 						"/>
					</g>
				</g>
				<polygon fill="#D5C3AF" points="1476.7,558.5 1475.1,550.7 1473.4,558.5 				"/>
				<polygon fill="#D5C3AF" points="1465.4,558.5 1463.7,550.7 1462.1,558.5 				"/>
				<g>
					<g>
						
							<rect x="1472.6" y="563.2" transform="matrix(-1 -4.521373e-11 4.521373e-11 -1 2948.5903 1141.4272)" fill="#E2DBD4" width="3.3" height="15"/>
						<polygon fill="#E2DBD4" points="1475.9,563.2 1474.3,559.7 1472.6,563.2 						"/>
					</g>
					<g>
						
							<rect x="1462.9" y="563.2" transform="matrix(-1 -4.466262e-11 4.466262e-11 -1 2929.0366 1141.4272)" fill="#E2DBD4" width="3.3" height="15"/>
						<polygon fill="#E2DBD4" points="1466.2,563.2 1464.5,559.7 1462.9,563.2 						"/>
					</g>
				</g>
				<g>
					
						<rect x="1504.5" y="566.1" transform="matrix(-1 -4.586566e-11 4.586566e-11 -1 3010.3625 1136.1313)" fill="#7C6A49" width="1.3" height="3.9"/>
					
						<rect x="1501.4" y="566.1" transform="matrix(-1 -4.169610e-11 4.169610e-11 -1 3004.1096 1136.1313)" fill="#7C6A49" width="1.3" height="3.9"/>
					
						<rect x="1498.3" y="566.1" transform="matrix(-1 -4.586566e-11 4.586566e-11 -1 2997.8567 1136.1313)" fill="#7C6A49" width="1.3" height="3.9"/>
					
						<rect x="1495.1" y="566.1" transform="matrix(-1 -4.308610e-11 4.308610e-11 -1 2991.6038 1136.1313)" fill="#7C6A49" width="1.3" height="3.9"/>
				</g>
				<g>
					
						<rect x="1504.5" y="572.4" transform="matrix(-1 -4.308610e-11 4.308610e-11 -1 3010.3625 1148.6122)" fill="#7C6A49" width="1.3" height="3.9"/>
					
						<rect x="1501.4" y="572.4" transform="matrix(-1 -4.169610e-11 4.169610e-11 -1 3004.1096 1148.6122)" fill="#7C6A49" width="1.3" height="3.9"/>
					
						<rect x="1498.3" y="572.4" transform="matrix(-1 -4.725565e-11 4.725565e-11 -1 2997.8567 1148.6122)" fill="#7C6A49" width="1.3" height="3.9"/>
					
						<rect x="1495.1" y="572.4" transform="matrix(-1 -4.308610e-11 4.308610e-11 -1 2991.6038 1148.6122)" fill="#7C6A49" width="1.3" height="3.9"/>
				</g>
				<g>
					
						<rect x="1489.5" y="566.6" transform="matrix(-1 -4.542157e-11 4.542157e-11 -1 2979.6689 1135.704)" fill="#7C6A49" width="0.7" height="2.5"/>
					
						<rect x="1487.8" y="566.6" transform="matrix(-1 -4.542157e-11 4.542157e-11 -1 2976.2249 1135.704)" fill="#7C6A49" width="0.7" height="2.5"/>
					
						<rect x="1486" y="566.6" transform="matrix(-1 -4.542157e-11 4.542157e-11 -1 2972.781 1135.704)" fill="#7C6A49" width="0.7" height="2.5"/>
					
						<rect x="1484.3" y="566.6" transform="matrix(-1 -4.037494e-11 4.037494e-11 -1 2969.3369 1135.704)" fill="#7C6A49" width="0.7" height="2.5"/>
					
						<rect x="1482.6" y="566.6" transform="matrix(-1 -4.542157e-11 4.542157e-11 -1 2965.8835 1135.704)" fill="#7C6A49" width="0.7" height="2.5"/>
					
						<rect x="1480.9" y="566.6" transform="matrix(-1 -4.542157e-11 4.542157e-11 -1 2962.4395 1135.704)" fill="#7C6A49" width="0.7" height="2.5"/>
					
						<rect x="1479.1" y="566.6" transform="matrix(-1 -4.289825e-11 4.289825e-11 -1 2958.9954 1135.704)" fill="#7C6A49" width="0.7" height="2.5"/>
				</g>
				<g>
					
						<rect x="1459.6" y="566.6" transform="matrix(-1 -4.542157e-11 4.542157e-11 -1 2919.8997 1135.704)" fill="#7C6A49" width="0.7" height="2.5"/>
					
						<rect x="1457.9" y="566.6" transform="matrix(-1 -4.289825e-11 4.289825e-11 -1 2916.4556 1135.704)" fill="#7C6A49" width="0.7" height="2.5"/>
					
						<rect x="1456.1" y="566.6" transform="matrix(-1 -4.289825e-11 4.289825e-11 -1 2913.0115 1135.704)" fill="#7C6A49" width="0.7" height="2.5"/>
					
						<rect x="1454.4" y="566.6" transform="matrix(-1 -4.542157e-11 4.542157e-11 -1 2909.5674 1135.704)" fill="#7C6A49" width="0.7" height="2.5"/>
					
						<rect x="1452.7" y="566.6" transform="matrix(-1 -4.542157e-11 4.542157e-11 -1 2906.114 1135.704)" fill="#7C6A49" width="0.7" height="2.5"/>
					
						<rect x="1451" y="566.6" transform="matrix(-1 -4.542157e-11 4.542157e-11 -1 2902.6702 1135.704)" fill="#7C6A49" width="0.7" height="2.5"/>
					
						<rect x="1449.3" y="566.6" transform="matrix(-1 -4.542157e-11 4.542157e-11 -1 2899.2261 1135.704)" fill="#7C6A49" width="0.7" height="2.5"/>
				</g>
				<g>
					
						<rect x="1470.9" y="566.6" transform="matrix(-1 -4.794488e-11 4.794488e-11 -1 2942.4346 1135.704)" fill="#7C6A49" width="0.7" height="2.5"/>
					
						<rect x="1469.1" y="566.6" transform="matrix(-1 -4.794488e-11 4.794488e-11 -1 2938.9905 1135.704)" fill="#7C6A49" width="0.7" height="2.5"/>
					
						<rect x="1467.4" y="566.6" transform="matrix(-1 -4.794488e-11 4.794488e-11 -1 2935.5464 1135.704)" fill="#7C6A49" width="0.7" height="2.5"/>
				</g>
				<g>
					<polygon fill="#7C6A49" points="1488.8,577 1491,577 1491,572.9 1489.9,571.6 1488.8,572.9 					"/>
					<polygon fill="#7C6A49" points="1486,577 1488.1,577 1488.1,572.9 1487.1,571.6 1486,572.9 					"/>
					<polygon fill="#7C6A49" points="1483.2,577 1485.3,577 1485.3,572.9 1484.2,571.6 1483.2,572.9 					"/>
					<polygon fill="#7C6A49" points="1480.3,577 1482.4,577 1482.4,572.9 1481.4,571.6 1480.3,572.9 					"/>
					<polygon fill="#7C6A49" points="1477.5,577 1479.6,577 1479.6,572.9 1478.5,571.6 1477.5,572.9 					"/>
					<g>
						<polygon fill="#7C6A49" points="1469.8,577 1471.9,577 1471.9,572.9 1470.8,571.6 1469.8,572.9 						"/>
						<polygon fill="#7C6A49" points="1466.9,577 1469,577 1469,572.9 1468,571.6 1466.9,572.9 						"/>
					</g>
					<polygon fill="#7C6A49" points="1459.4,577 1461.5,577 1461.5,572.9 1460.5,571.6 1459.4,572.9 					"/>
					<polygon fill="#7C6A49" points="1456.6,577 1458.7,577 1458.7,572.9 1457.6,571.6 1456.6,572.9 					"/>
					<polygon fill="#7C6A49" points="1453.7,577 1455.8,577 1455.8,572.9 1454.8,571.6 1453.7,572.9 					"/>
					<polygon fill="#7C6A49" points="1450.9,577 1453,577 1453,572.9 1451.9,571.6 1450.9,572.9 					"/>
					<polygon fill="#7C6A49" points="1448,577 1450.2,577 1450.2,572.9 1449.1,571.6 1448,572.9 					"/>
				</g>
			</g>
			<rect x="1414.8" y="561.8" fill="#D5C3AF" width="31.6" height="16.4"/>
			<rect x="1422" y="551.3" fill="#E2DBD4" width="17.2" height="10.4"/>
			<g>
				<polygon fill="#D5C3AF" points="1420,561.8 1421.5,559.5 1422.9,561.8 				"/>
				<polygon fill="#D5C3AF" points="1423,561.8 1424.5,559.5 1426,561.8 				"/>
				<polygon fill="#D5C3AF" points="1426.1,561.8 1427.6,559.5 1429,561.8 				"/>
				<polygon fill="#D5C3AF" points="1429.2,561.8 1430.6,559.5 1432.1,561.8 				"/>
				<polygon fill="#D5C3AF" points="1432.2,561.8 1433.7,559.5 1435.1,561.8 				"/>
				<polygon fill="#D5C3AF" points="1435.3,561.8 1436.7,559.5 1438.2,561.8 				"/>
				<polygon fill="#D5C3AF" points="1438.3,561.8 1439.8,559.5 1441.3,561.8 				"/>
			</g>
			<polygon fill="#75514D" points="1429.7,538.8 1430.6,528.4 1431.5,538.8 			"/>
			<g>
				<rect x="1422" y="571.6" fill="#7C6A49" width="1" height="3.4"/>
				<rect x="1424.3" y="571.6" fill="#7C6A49" width="1" height="3.4"/>
				<rect x="1426.6" y="571.6" fill="#7C6A49" width="1" height="3.4"/>
				<rect x="1429" y="571.6" fill="#7C6A49" width="1" height="3.4"/>
				<rect x="1431.3" y="571.6" fill="#7C6A49" width="1" height="3.4"/>
				<rect x="1433.6" y="571.6" fill="#7C6A49" width="1" height="3.4"/>
				<rect x="1435.9" y="571.6" fill="#7C6A49" width="1" height="3.4"/>
				<rect x="1438.2" y="571.6" fill="#7C6A49" width="1" height="3.4"/>
			</g>
			<g>
				<rect x="1369.4" y="565" fill="#D5C3AF" width="45.4" height="13.2"/>
				<rect x="1384.8" y="558.5" fill="#D5C3AF" width="14.7" height="6.6"/>
				<polygon fill="#75514D" points="1399.4,558.5 1384.8,558.5 1386.6,553.5 1397.6,553.5 				"/>
				<polygon fill="#75514D" points="1363.9,558.1 1358.1,558.1 1352.6,563.2 1369.4,563.2 				"/>
				<g>
					<rect x="1352.6" y="563.2" fill="#E2DBD4" width="16.7" height="15"/>
					<polygon fill="#E2DBD4" points="1352.6,563.2 1354.3,559.7 1355.9,563.2 					"/>
					<polygon fill="#E2DBD4" points="1366.1,563.2 1367.7,559.7 1369.4,563.2 					"/>
				</g>
				<g>
					<g>
						<polygon fill="#75514D" points="1369.4,565 1370.9,562.8 1372.5,565 						"/>
						<polygon fill="#75514D" points="1372.6,565 1374.2,562.8 1375.8,565 						"/>
						<polygon fill="#75514D" points="1375.9,565 1377.4,562.8 1379,565 						"/>
						<polygon fill="#75514D" points="1379.1,565 1380.7,562.8 1382.2,565 						"/>
						<polygon fill="#75514D" points="1382.4,565 1383.9,562.8 1385.5,565 						"/>
					</g>
					<g>
						<polygon fill="#75514D" points="1398.7,565 1400.3,562.8 1401.8,565 						"/>
						<polygon fill="#75514D" points="1401.9,565 1403.5,562.8 1405.1,565 						"/>
						<polygon fill="#75514D" points="1405.2,565 1406.7,562.8 1408.3,565 						"/>
						<polygon fill="#75514D" points="1408.4,565 1410,562.8 1411.6,565 						"/>
						<polygon fill="#75514D" points="1411.7,565 1413.2,562.8 1414.8,565 						"/>
					</g>
				</g>
				<polygon fill="#D5C3AF" points="1384.8,558.5 1386.4,550.7 1388.1,558.5 				"/>
				<polygon fill="#D5C3AF" points="1396.1,558.5 1397.8,550.7 1399.4,558.5 				"/>
				<g>
					<g>
						<rect x="1385.5" y="563.2" fill="#E2DBD4" width="3.3" height="15"/>
						<polygon fill="#E2DBD4" points="1385.5,563.2 1387.2,559.7 1388.8,563.2 						"/>
					</g>
					<g>
						<rect x="1395.3" y="563.2" fill="#E2DBD4" width="3.3" height="15"/>
						<polygon fill="#E2DBD4" points="1395.3,563.2 1397,559.7 1398.6,563.2 						"/>
					</g>
				</g>
				<g>
					<rect x="1355.7" y="566.1" fill="#7C6A49" width="1.3" height="3.9"/>
					<rect x="1358.8" y="566.1" fill="#7C6A49" width="1.3" height="3.9"/>
					<rect x="1361.9" y="566.1" fill="#7C6A49" width="1.3" height="3.9"/>
					<rect x="1365" y="566.1" fill="#7C6A49" width="1.3" height="3.9"/>
				</g>
				<g>
					<rect x="1355.7" y="572.4" fill="#7C6A49" width="1.3" height="3.9"/>
					<rect x="1358.8" y="572.4" fill="#7C6A49" width="1.3" height="3.9"/>
					<rect x="1361.9" y="572.4" fill="#7C6A49" width="1.3" height="3.9"/>
					<rect x="1365" y="572.4" fill="#7C6A49" width="1.3" height="3.9"/>
				</g>
				<g>
					<rect x="1371.3" y="566.6" fill="#7C6A49" width="0.7" height="2.5"/>
					<rect x="1373" y="566.6" fill="#7C6A49" width="0.7" height="2.5"/>
					<rect x="1374.7" y="566.6" fill="#7C6A49" width="0.7" height="2.5"/>
					<rect x="1376.5" y="566.6" fill="#7C6A49" width="0.7" height="2.5"/>
					<rect x="1378.2" y="566.6" fill="#7C6A49" width="0.7" height="2.5"/>
					<rect x="1379.9" y="566.6" fill="#7C6A49" width="0.7" height="2.5"/>
					<rect x="1381.6" y="566.6" fill="#7C6A49" width="0.7" height="2.5"/>
				</g>
				<g>
					<rect x="1401.2" y="566.6" fill="#7C6A49" width="0.7" height="2.5"/>
					<rect x="1402.9" y="566.6" fill="#7C6A49" width="0.7" height="2.5"/>
					<rect x="1404.6" y="566.6" fill="#7C6A49" width="0.7" height="2.5"/>
					<rect x="1406.3" y="566.6" fill="#7C6A49" width="0.7" height="2.5"/>
					<rect x="1408.1" y="566.6" fill="#7C6A49" width="0.7" height="2.5"/>
					<rect x="1409.8" y="566.6" fill="#7C6A49" width="0.7" height="2.5"/>
					<rect x="1411.5" y="566.6" fill="#7C6A49" width="0.7" height="2.5"/>
				</g>
				<g>
					<rect x="1389.9" y="566.6" fill="#7C6A49" width="0.7" height="2.5"/>
					<rect x="1391.6" y="566.6" fill="#7C6A49" width="0.7" height="2.5"/>
					<rect x="1393.4" y="566.6" fill="#7C6A49" width="0.7" height="2.5"/>
				</g>
				<g>
					<polygon fill="#7C6A49" points="1372.7,577 1370.5,577 1370.5,572.9 1371.6,571.6 1372.7,572.9 					"/>
					<polygon fill="#7C6A49" points="1375.5,577 1373.4,577 1373.4,572.9 1374.4,571.6 1375.5,572.9 					"/>
					<polygon fill="#7C6A49" points="1378.3,577 1376.2,577 1376.2,572.9 1377.3,571.6 1378.3,572.9 					"/>
					<polygon fill="#7C6A49" points="1381.2,577 1379.1,577 1379.1,572.9 1380.1,571.6 1381.2,572.9 					"/>
					<polygon fill="#7C6A49" points="1384,577 1381.9,577 1381.9,572.9 1383,571.6 1384,572.9 					"/>
					<g>
						<polygon fill="#7C6A49" points="1391.7,577 1389.6,577 1389.6,572.9 1390.7,571.6 1391.7,572.9 						"/>
						<polygon fill="#7C6A49" points="1394.6,577 1392.5,577 1392.5,572.9 1393.5,571.6 1394.6,572.9 						"/>
					</g>
					<polygon fill="#7C6A49" points="1402.1,577 1400,577 1400,572.9 1401,571.6 1402.1,572.9 					"/>
					<polygon fill="#7C6A49" points="1404.9,577 1402.8,577 1402.8,572.9 1403.9,571.6 1404.9,572.9 					"/>
					<polygon fill="#7C6A49" points="1407.8,577 1405.7,577 1405.7,572.9 1406.7,571.6 1407.8,572.9 					"/>
					<polygon fill="#7C6A49" points="1410.6,577 1408.5,577 1408.5,572.9 1409.6,571.6 1410.6,572.9 					"/>
					<polygon fill="#7C6A49" points="1413.5,577 1411.3,577 1411.3,572.9 1412.4,571.6 1413.5,572.9 					"/>
				</g>
			</g>
			<g>
				<path fill="#7C6A49" d="M1423.6,565.7c0-0.6-0.5-1-1.1-1c-0.6,0-1,0.5-1.1,1h0v4.1h2.1L1423.6,565.7L1423.6,565.7z"/>
				<path fill="#7C6A49" d="M1426.8,565.7c0-0.6-0.5-1-1.1-1c-0.6,0-1,0.5-1.1,1h0v4.1h2.1L1426.8,565.7L1426.8,565.7z"/>
				<path fill="#7C6A49" d="M1430,565.7c0-0.6-0.5-1-1.1-1c-0.6,0-1,0.5-1.1,1h0v4.1h2.1L1430,565.7L1430,565.7z"/>
				<path fill="#7C6A49" d="M1433.3,565.7c0-0.6-0.5-1-1.1-1c-0.6,0-1,0.5-1.1,1h0v4.1h2.1L1433.3,565.7L1433.3,565.7z"/>
				<path fill="#7C6A49" d="M1436.5,565.7c0-0.6-0.5-1-1.1-1c-0.6,0-1,0.5-1.1,1h0v4.1h2.1L1436.5,565.7L1436.5,565.7z"/>
				<path fill="#7C6A49" d="M1439.7,565.7c0-0.6-0.5-1-1.1-1c-0.6,0-1,0.5-1.1,1h0v4.1h2.1L1439.7,565.7L1439.7,565.7z"/>
			</g>
			<path fill="#75514D" d="M1438.5,551.3c0-4-2-12.9-7.9-12.9s-7.9,8.9-7.9,12.9H1438.5z"/>
			<g>
				<circle fill="#D5C3AF" cx="1423.9" cy="553.9" r="1"/>
				<circle fill="#D5C3AF" cx="1427.3" cy="553.9" r="1"/>
				<circle fill="#D5C3AF" cx="1430.6" cy="553.9" r="1"/>
				<circle fill="#D5C3AF" cx="1434" cy="553.9" r="1"/>
				<circle fill="#D5C3AF" cx="1437.3" cy="553.9" r="1"/>
			</g>
			<g>
				<polygon fill="#E2DBD4" points="1422,551.4 1422.9,547.3 1423.7,551.4 				"/>
				<polygon fill="#E2DBD4" points="1425.1,551.4 1426,547.3 1426.8,551.4 				"/>
				<polygon fill="#E2DBD4" points="1428.2,551.4 1429.1,547.3 1429.9,551.4 				"/>
				<polygon fill="#E2DBD4" points="1431.3,551.4 1432.2,547.3 1433,551.4 				"/>
				<polygon fill="#E2DBD4" points="1434.4,551.4 1435.3,547.3 1436.1,551.4 				"/>
				<polygon fill="#E2DBD4" points="1437.5,551.4 1438.4,547.3 1439.2,551.4 				"/>
			</g>
			<g>
				<rect x="1414.2" y="555.5" fill="#E2DBD4" width="5.8" height="22.7"/>
				<polygon fill="#E2DBD4" points="1414.9,555.5 1417.2,538.8 1419.4,555.5 				"/>
				<g>
					<rect x="1441.3" y="555.5" fill="#E2DBD4" width="5.8" height="22.7"/>
					<polygon fill="#E2DBD4" points="1441.9,555.5 1444.2,538.8 1446.4,555.5 					"/>
				</g>
			</g>
		</g>
		
			<line fill="none" stroke="#7C6A49" stroke-width="2" stroke-linecap="round" stroke-linejoin="round" stroke-miterlimit="10" x1="1343.8" y1="578.2" x2="1517.7" y2="578.2"/>
	</g>
	<path fill="#9FD0E2" d="M1292.8,1043.5h-19.5c-0.5-0.3-0.9-0.8-0.9-1.4c0-0.6,0.4-1.2,0.9-1.4h5c1.4,0,2.5-1.1,2.5-2.5
		c0-1.4-1.1-2.5-2.5-2.5h-53c-1.4,0-2.5,1.1-2.5,2.5c0,1.4,1.1,2.5,2.5,2.5h23.9c0.5,0.3,0.9,0.8,0.9,1.4c0,0.6-0.4,1.2-0.9,1.4
		h-11.6c-1.4,0-2.5,1.1-2.5,2.5c0,1.4,1.1,2.5,2.5,2.5h1.9h2.6c1,0,1.8,0.8,1.8,1.8c0,0.7-0.4,1.3-1,1.6h-12.6
		c-1.4,0-2.5,1.1-2.5,2.5c0,1.4,1.1,2.5,2.5,2.5h46.3c1.4,0,2.5-1.1,2.5-2.5c0-1.4-1.1-2.5-2.5-2.5h-16.2c-0.6-0.3-1-0.9-1-1.6
		c0-1,0.8-1.8,1.8-1.8h4.6h27.2c1.4,0,2.5-1.1,2.5-2.5C1295.3,1044.6,1294.2,1043.5,1292.8,1043.5z"/>
	<path fill="#9FD0E2" d="M1181.7,921.4h19.5c0.5,0.3,0.9,0.8,0.9,1.4c0,0.6-0.4,1.2-0.9,1.4h-5c-1.4,0-2.5,1.1-2.5,2.5
		s1.1,2.5,2.5,2.5h53c1.4,0,2.5-1.1,2.5-2.5s-1.1-2.5-2.5-2.5h-23.9c-0.5-0.3-0.9-0.8-0.9-1.4c0-0.6,0.4-1.2,0.9-1.4h11.6
		c1.4,0,2.5-1.1,2.5-2.5s-1.1-2.5-2.5-2.5h-1.9h-2.6c-1,0-1.8-0.8-1.8-1.8c0-0.7,0.4-1.3,1-1.6h12.6c1.4,0,2.5-1.1,2.5-2.5
		s-1.1-2.5-2.5-2.5H1198c-1.4,0-2.5,1.1-2.5,2.5s1.1,2.5,2.5,2.5h16.2c0.6,0.3,1,0.9,1,1.6c0,1-0.8,1.8-1.8,1.8h-4.6h-27.2
		c-1.4,0-2.5,1.1-2.5,2.5S1180.4,921.4,1181.7,921.4z"/>
	<path fill="#9FD0E2" d="M1221.2,691.7h19.5c0.5,0.3,0.9,0.8,0.9,1.4c0,0.6-0.4,1.2-0.9,1.4h-5c-1.4,0-2.5,1.1-2.5,2.5
		c0,1.4,1.1,2.5,2.5,2.5h53c1.4,0,2.5-1.1,2.5-2.5c0-1.4-1.1-2.5-2.5-2.5h-23.9c-0.5-0.3-0.9-0.8-0.9-1.4c0-0.6,0.4-1.2,0.9-1.4
		h11.6c1.4,0,2.5-1.1,2.5-2.5s-1.1-2.5-2.5-2.5h-1.9h-2.6c-1,0-1.8-0.8-1.8-1.8c0-0.7,0.4-1.3,1-1.6h12.6c1.4,0,2.5-1.1,2.5-2.5
		c0-1.4-1.1-2.5-2.5-2.5h-46.3c-1.4,0-2.5,1.1-2.5,2.5c0,1.4,1.1,2.5,2.5,2.5h16.2c0.6,0.3,1,0.9,1,1.6c0,1-0.8,1.8-1.8,1.8h-4.6
		h-27.2c-1.4,0-2.5,1.1-2.5,2.5S1219.9,691.7,1221.2,691.7z"/>
	<path fill="#9FD0E2" d="M1245.8,573.4h-19.5c-0.5,0.3-0.9,0.8-0.9,1.4c0,0.6,0.4,1.2,0.9,1.4h5c1.4,0,2.5,1.1,2.5,2.5
		s-1.1,2.5-2.5,2.5h-53c-1.4,0-2.5-1.1-2.5-2.5s1.1-2.5,2.5-2.5h23.9c0.5-0.3,0.9-0.8,0.9-1.4c0-0.6-0.4-1.2-0.9-1.4h-11.6
		c-1.4,0-2.5-1.1-2.5-2.5s1.1-2.5,2.5-2.5h1.9h2.6c1,0,1.8-0.8,1.8-1.8c0-0.7-0.4-1.3-1-1.6h-12.6c-1.4,0-2.5-1.1-2.5-2.5
		c0-1.4,1.1-2.5,2.5-2.5h46.3c1.4,0,2.5,1.1,2.5,2.5c0,1.4-1.1,2.5-2.5,2.5h-16.2c-0.6,0.3-1,0.9-1,1.6c0,1,0.8,1.8,1.8,1.8h4.6
		h27.2c1.4,0,2.5,1.1,2.5,2.5S1247.1,573.4,1245.8,573.4z"/>
	<g>
		<path fill="#FFFFFF" d="M1236.6,1038.3c1.4,0,2.6-1.2,2.6-2.6h-5.1C1234,1037.1,1235.2,1038.3,1236.6,1038.3z"/>
		<path fill="#FFFFFF" d="M1241.7,1038.3c1.4,0,2.6-1.2,2.6-2.6h-5.1C1239.1,1037.1,1240.3,1038.3,1241.7,1038.3z"/>
		<path fill="#FFFFFF" d="M1246.9,1038.3c1.4,0,2.6-1.2,2.6-2.6h-5.1C1244.3,1037.1,1245.4,1038.3,1246.9,1038.3z"/>
		<path fill="#FFFFFF" d="M1252,1038.3c1.4,0,2.6-1.2,2.6-2.6h-5.1C1249.4,1037.1,1250.6,1038.3,1252,1038.3z"/>
		<path fill="#FFFFFF" d="M1257.2,1038.3c1.4,0,2.6-1.2,2.6-2.6h-5.1C1254.6,1037.1,1255.7,1038.3,1257.2,1038.3z"/>
		<path fill="#FFFFFF" d="M1259.7,1035.7c0,1.4,1.2,2.6,2.6,2.6s2.6-1.2,2.6-2.6H1259.7z"/>
	</g>
	<g>
		<polygon fill="#DBA671" points="1234,1035.8 1264.9,1035.8 1265.7,1032.9 1230.5,1032.9 		"/>
		<polygon fill="#DBA671" points="1261.9,1025 1220.9,1025 1223,1026.8 1263.7,1026.8 		"/>
		<polygon fill="#662D91" points="1263.7,1026.8 1223,1026.8 1230.5,1032.9 1265.7,1032.9 1266.6,1029.6 		"/>
		<circle fill="#57BCFC" cx="1231.6" cy="1029.7" r="1.5"/>
		<circle fill="#57BCFC" cx="1237.1" cy="1029.7" r="1.5"/>
		<circle fill="#57BCFC" cx="1242.6" cy="1029.7" r="1.5"/>
		<circle fill="#57BCFC" cx="1261" cy="1029.7" r="1.5"/>
		<g>
			<g>
				<g>
					<rect x="1247.1" y="1022.2" fill="#662D91" width="12.2" height="0.8"/>
				</g>
				<g>
					<rect x="1250.8" y="1022.6" fill="#662D91" width="0.8" height="2.5"/>
				</g>
				<g>
					<rect x="1253.4" y="1022.6" fill="#662D91" width="0.8" height="2.5"/>
				</g>
				<g>
					<rect x="1256.1" y="1022.6" fill="#662D91" width="0.8" height="2.5"/>
				</g>
			</g>
			<g>
				<polygon fill="#DBA671" points="1248.4,1025 1225.8,1025 1231.2,1018.7 1246.1,1018.7 				"/>
				<g>
					<polygon fill="#57BCFC" points="1242.5,1020.1 1235.9,1020.1 1233.6,1023.7 1241.3,1022.3 					"/>
					<g>
						<polygon fill="#FFFFFF" points="1231.4,1020.1 1228.5,1024.6 1230.8,1024.2 1233.4,1020.1 						"/>
						<polygon fill="#FFFFFF" points="1234.6,1020.1 1232.1,1024 1233.6,1023.7 1235.9,1020.1 						"/>
					</g>
					<g>
						<polygon fill="#57BCFC" points="1233.4,1020.1 1230.8,1024.2 1232.1,1024 1234.6,1020.1 						"/>
						<polygon fill="#57BCFC" points="1230,1020.1 1225.8,1025 1228.5,1024.6 1231.4,1020.1 						"/>
					</g>
				</g>
			</g>
		</g>
	</g>
	<g>
		<g>
			<g>
				<path fill="#DBA671" d="M1343.6,93.1c-0.8,0.8-2,0.8-2.8,0L1328,80.3c-0.8-0.8-0.8-2,0-2.8c0.8-0.8,2-0.8,2.8,0l12.7,12.7
					C1344.4,91,1344.4,92.3,1343.6,93.1z"/>
			</g>
			<g>
				<path fill="#DBA671" d="M1338.4,102c-0.5,0.5-1.2,0.7-1.9,0.5l-9.6-2.6c-1.1-0.3-1.7-1.4-1.4-2.4c0.3-1.1,1.4-1.7,2.4-1.4
					l9.6,2.6c1.1,0.3,1.7,1.4,1.4,2.4C1338.8,101.5,1338.6,101.8,1338.4,102z"/>
			</g>
			<g>
				<path fill="#DBA671" d="M1343.6,121.4l-7,7c-0.8,0.8-2,0.8-2.8,0c-0.8-0.8-0.8-2,0-2.8l7-7c0.8-0.8,2-0.8,2.8,0
					C1344.4,119.3,1344.4,120.6,1343.6,121.4z"/>
			</g>
			<g>
				<path fill="#DBA671" d="M1365.5,136.1c-0.2,0.2-0.5,0.4-0.9,0.5c-1.1,0.3-2.2-0.3-2.4-1.4l-2.6-9.6c-0.3-1.1,0.3-2.2,1.4-2.4
					c1.1-0.3,2.2,0.3,2.4,1.4l2.6,9.6C1366.2,134.9,1366,135.6,1365.5,136.1z"/>
			</g>
			<g>
				<path fill="#DBA671" d="M1386.6,114.9c-0.5,0.5-1.2,0.7-1.9,0.5l-9.6-2.6c-1.1-0.3-1.7-1.4-1.4-2.4c0.3-1.1,1.4-1.7,2.4-1.4
					l9.6,2.6c1.1,0.3,1.7,1.4,1.4,2.4C1387,114.4,1386.9,114.7,1386.6,114.9z"/>
			</g>
			<g>
				<path fill="#DBA671" d="M1378.9,86.1l-7,7c-0.8,0.8-2,0.8-2.8,0s-0.8-2,0-2.8l7-7c0.8-0.8,2-0.8,2.8,0S1379.7,85.3,1378.9,86.1z
					"/>
			</g>
			<g>
				<path fill="#DBA671" d="M1352.5,87.9c-0.2,0.2-0.5,0.4-0.9,0.5c-1.1,0.3-2.2-0.3-2.4-1.4l-2.6-9.6c-0.3-1.1,0.3-2.2,1.4-2.4
					c1.1-0.3,2.2,0.3,2.4,1.4l2.6,9.6C1353.3,86.7,1353,87.4,1352.5,87.9z"/>
			</g>
			<g>
				<path fill="#DBA671" d="M1338.4,112.4c-0.2,0.2-0.5,0.4-0.9,0.5l-17.4,4.7c-1.1,0.3-2.2-0.3-2.4-1.4c-0.3-1.1,0.3-2.2,1.4-2.4
					l17.4-4.7c1.1-0.3,2.2,0.3,2.4,1.4C1339.1,111.2,1338.9,111.9,1338.4,112.4z"/>
			</g>
			<g>
				<path fill="#DBA671" d="M1347.9,143.9c-0.5,0.5-1.2,0.7-1.9,0.5c-1.1-0.3-1.7-1.4-1.4-2.4l4.7-17.4c0.3-1.1,1.4-1.7,2.4-1.4
					c1.1,0.3,1.7,1.4,1.4,2.4l-4.7,17.4C1348.3,143.4,1348.1,143.7,1347.9,143.9z"/>
			</g>
			<g>
				<path fill="#DBA671" d="M1384.6,134.1c-0.8,0.8-2,0.8-2.8,0l-12.7-12.7c-0.8-0.8-0.8-2,0-2.8s2-0.8,2.8,0l12.7,12.7
					C1385.4,132,1385.4,133.3,1384.6,134.1z"/>
			</g>
			<g>
				<path fill="#DBA671" d="M1394.4,97.4c-0.2,0.2-0.5,0.4-0.9,0.5l-17.4,4.7c-1.1,0.3-2.2-0.3-2.4-1.4c-0.3-1.1,0.3-2.2,1.4-2.4
					l17.4-4.7c1.1-0.3,2.2,0.3,2.4,1.4C1395.1,96.2,1394.9,96.9,1394.4,97.4z"/>
			</g>
			<g>
				<path fill="#DBA671" d="M1362.9,87.9c-0.5,0.5-1.2,0.7-1.9,0.5c-1.1-0.3-1.7-1.4-1.4-2.4l4.7-17.4c0.3-1.1,1.4-1.7,2.4-1.4
					c1.1,0.3,1.7,1.4,1.4,2.4l-4.7,17.4C1363.3,87.3,1363.1,87.6,1362.9,87.9z"/>
			</g>
		</g>
		<g>
			<path fill="#DBA671" d="M1340.5,105.8c0,8.7,7.1,15.8,15.8,15.8V90C1347.6,90,1340.5,97.1,1340.5,105.8z"/>
			<path fill="#EFC08E" d="M1372.1,105.8c0-8.7-7.1-15.8-15.8-15.8v31.6C1365,121.6,1372.1,114.5,1372.1,105.8z"/>
		</g>
	</g>
	<path fill="#ACD9EA" d="M1275,280.2c1.5,0.1,2.5,0,3.4-1.6c0.9-1.6,1.2-5.9,1.1-6.6c-0.1-0.6,0.6-2.2,1.4-3.9
		c0.7-1.7,0.9-2.6,1.8-3.1c0.9-0.6,3.9-2.1,7.8-4.4s4.9-7,4.2-7.7s-3.1,2.2-3.8,2.6c-0.6,0.4-2.9-0.1-3.5-0.2s-5.3,1.6-6.5,0.8
		c-1.2-0.8-2.2-5.9-2.6-7.6c-0.4-1.7-3.9-10-4-12.9s3-3.4,4.8-4.8c1.8-1.5,2-4.4,2-4.4s-0.2-0.9-1.1,0.1c-0.9,1-2.2,1.6-3.1,1.7
		c-0.9,0.1-3.5-0.8-4.2,0.8l-0.3,0.1c-0.9-1.5-3.4-0.4-4.3-0.5c-0.9-0.1-2.3-0.5-3.3-1.4s-1.1,0-1.1,0s0.5,2.9,2.4,4.2
		c1.9,1.3,5.1,1.5,5.2,4.4s-2.7,11.4-2.9,13.2s-0.8,6.9-2,7.8c-1.1,0.9-5.9-0.5-6.5-0.2c-0.6,0.2-2.9,0.9-3.5,0.5
		c-0.6-0.4-3.4-3-4-2.3c-0.6,0.7,0.8,5.3,4.9,7.3c4,2,7.2,3.3,8.1,3.8c0.9,0.5,1.1,1.3,2,3s1.7,3.1,1.7,3.8s0.6,4.9,1.7,6.5
		c1.1,1.5,2.1,1.5,3.6,1.3L1275,280.2z"/>
	<path fill="none" stroke="#D5C3AF" stroke-width="0.75" stroke-miterlimit="10" d="M1192.2,633.4"/>
	<path fill="none" stroke="#D5C3AF" stroke-width="0.75" stroke-miterlimit="10" d="M1192.2,619.9"/>
	<path fill="none" stroke="#D5C3AF" stroke-width="0.75" stroke-miterlimit="10" d="M1188.2,633.4"/>
	<path fill="none" stroke="#D5C3AF" stroke-width="0.75" stroke-miterlimit="10" d="M1188.2,622.6"/>
	<g>
		<g>
			<path fill="#D5C3AF" d="M1233.5,634.6c0,0-0.1,0-0.1,0c-15.3-0.1-35.8-15.5-36.6-16.2l0.9-1.2c0.2,0.2,20.9,15.8,35.7,15.9
				c0,0,0.1,0,0.1,0c14.8,0,31.7-15.3,31.9-15.5l1,1.1C1265.6,619.3,1248.8,634.6,1233.5,634.6z"/>
		</g>
		<g>
			<path fill="#D5C3AF" d="M1169.4,633.6c-0.1,0-0.2,0-0.2,0l0-1.5c0.1,0,0.1,0,0.2,0c9.2,0,17.2-14.7,17.3-14.8l1.3,0.7
				C1187.6,618.6,1179.5,633.6,1169.4,633.6z"/>
		</g>
		<g>
			<rect x="1186.8" y="611.5" fill="#E8E3DF" width="10.8" height="23.1"/>
			<rect x="1186.8" y="629.2" fill="#C6B4A3" width="10.8" height="5.3"/>
			<rect x="1185.4" y="634.5" fill="#D5C3AF" width="13.6" height="8.9"/>
			<polygon fill="#D5C3AF" points="1198.6,617.6 1185.9,617.6 1185.3,614.6 1199.2,614.6 			"/>
		</g>
		<g>
			<path fill="#D5C3AF" d="M1297.6,633.6c-14.2,0-21.3-15-21.6-15.7l1.4-0.6c0.1,0.1,7.1,14.8,20.3,14.8L1297.6,633.6z"/>
		</g>
		<g>
			<rect x="1265.8" y="611.5" fill="#E8E3DF" width="10.8" height="23.1"/>
			<rect x="1265.8" y="629.2" fill="#C6B4A3" width="10.8" height="5.3"/>
			<rect x="1264.4" y="634.5" fill="#D5C3AF" width="13.6" height="8.9"/>
			<polygon fill="#D5C3AF" points="1277.6,617.6 1264.9,617.6 1264.3,614.6 1278.2,614.6 			"/>
		</g>
		<g>
			<g>
				<rect x="1199.8" y="619.9" fill="#D5C3AF" width="0.8" height="13.5"/>
			</g>
			<g>
				<rect x="1203.8" y="622.6" fill="#D5C3AF" width="0.8" height="10.7"/>
			</g>
			<g>
				<rect x="1207.8" y="624.8" fill="#D5C3AF" width="0.8" height="8.6"/>
			</g>
			<g>
				<rect x="1211.8" y="627.2" fill="#D5C3AF" width="0.8" height="6.2"/>
			</g>
		</g>
		<g>
			<g>
				<rect x="1263.9" y="619.9" fill="#D5C3AF" width="0.8" height="13.5"/>
			</g>
			<g>
				<rect x="1259.9" y="622.6" fill="#D5C3AF" width="0.8" height="10.7"/>
			</g>
			<g>
				<rect x="1255.9" y="624.8" fill="#D5C3AF" width="0.8" height="8.6"/>
			</g>
			<g>
				<rect x="1251.9" y="627.2" fill="#D5C3AF" width="0.8" height="6.2"/>
			</g>
		</g>
		<g>
			<g>
				<rect x="1183.9" y="622.5" fill="#D5C3AF" width="0.8" height="10.9"/>
			</g>
			<g>
				<rect x="1179.9" y="627.2" fill="#D5C3AF" width="0.8" height="6.2"/>
			</g>
		</g>
		<g>
			<g>
				<rect x="1278.9" y="622.5" fill="#D5C3AF" width="0.8" height="10.9"/>
			</g>
			<g>
				<rect x="1282.9" y="627.2" fill="#D5C3AF" width="0.8" height="6.2"/>
			</g>
		</g>
		<rect x="1169.1" y="632.9" fill="#D5C3AF" width="128.5" height="1.9"/>
	</g>
	<g>
		<g>
			<rect x="1081.4" y="394.7" fill="#4D4D4D" width="1" height="1"/>
		</g>
		<g>
			<path fill="#4D4D4D" d="M1125.7,431.4h-2.1v-1h2.1V431.4z M1121.6,431.4h-2.1v-1h2.1V431.4z M1117.4,431.4h-2.1v-1h2.1V431.4z
				 M1113.3,431.4h-2.1v-1h2.1V431.4z M1109.2,431.4h-2.1v-1h2.1V431.4z M1105.1,431.4c-0.7,0-1.4-0.1-2.1-0.1l0.1-1
				c0.7,0.1,1.3,0.1,2,0.1L1105.1,431.4z M1100.9,431c-0.7-0.1-1.4-0.3-2.1-0.4l0.2-1c0.6,0.2,1.3,0.3,2,0.4L1100.9,431z
				 M1096.9,430c-0.7-0.2-1.3-0.4-2-0.7l0.4-0.9c0.6,0.2,1.3,0.5,1.9,0.7L1096.9,430z M1093,428.5c-0.6-0.3-1.2-0.6-1.8-1l0.5-0.9
				c0.6,0.3,1.2,0.7,1.8,1L1093,428.5z M1089.4,426.3c-0.6-0.4-1.1-0.9-1.6-1.3l0.7-0.8c0.5,0.4,1,0.9,1.6,1.2L1089.4,426.3z
				 M1086.2,423.5c-0.5-0.5-0.9-1.1-1.4-1.6l0.8-0.6c0.4,0.5,0.8,1,1.3,1.5L1086.2,423.5z M1083.7,420.2c-0.4-0.6-0.7-1.2-1-1.9
				l0.9-0.4c0.3,0.6,0.6,1.2,0.9,1.8L1083.7,420.2z M1082,416.3c-0.2-0.7-0.4-1.4-0.5-2.1l1-0.1c0.1,0.6,0.2,1.3,0.4,1.9L1082,416.3
				z M1081.4,412.1l0-2.1h1l0,2L1081.4,412.1z M1082.4,408h-1v-2.1h1V408z M1082.4,403.9h-1v-2.1h1V403.9z M1082.4,399.8h-1v-2.1h1
				V399.8z"/>
		</g>
		<g>
			<rect x="1127.8" y="430.4" fill="#4D4D4D" width="1" height="1"/>
		</g>
		<g>
			<g>
				<circle fill="#4D4D4D" cx="1081.9" cy="394.8" r="1.7"/>
			</g>
		</g>
		<g>
			<g>
				<polygon fill="#4D4D4D" points="1125.4,435 1124.8,434.2 1128.4,430.9 1124.8,427.5 1125.4,426.8 1129.8,430.9 				"/>
			</g>
		</g>
	</g>
	<g>
		<g>
			<path fill="#665B56" d="M1031.2,884.8l-10.6,24.3c0,0,0,0,0,0c0.4,0.2,0.8,0,1-0.4l9.4-21.4c0.4-0.1,0.8-0.3,1-0.8
				C1032.2,885.9,1031.9,885.1,1031.2,884.8z"/>
			<path fill="#534741" d="M1031.2,884.8c-0.7-0.3-1.5,0-1.8,0.7c-0.2,0.4-0.1,0.9,0.1,1.2l-9.4,21.4c-0.2,0.4,0,0.8,0.4,1
				L1031.2,884.8L1031.2,884.8z"/>
		</g>
		<g>
			<path fill="#E6E6E6" d="M1043,892.3c0,0-2.3-0.5-3.6-0.9l-1.4,3.3c1.3,0.4,3.6,0.9,3.6,0.9L1043,892.3z"/>
			<path fill="#E6E6E6" d="M1034.7,892.9l1.4-3.3c-1.1-0.7-2.2-1.4-3.2-1.9l-1.4,3.3C1032.5,891.4,1033.6,892.2,1034.7,892.9z"/>
			<path fill="#534741" d="M1037.9,894.7l-1.5,3.3c1.3,0.4,3.6,0.9,3.6,0.9l1.5-3.3C1041.5,895.7,1039.2,895.1,1037.9,894.7z"/>
			<path fill="#534741" d="M1033.2,896.2l1.5-3.3c-1.1-0.7-2.2-1.4-3.2-1.9l-1.5,3.3C1031.1,894.8,1032.2,895.5,1033.2,896.2z"/>
			<path fill="#E6E6E6" d="M1036.4,898.1l-1.5,3.4c2,1,3.2,1.2,3.6,1.2l1.6-3.7C1040.1,899,1037.7,898.5,1036.4,898.1z"/>
			<path fill="#E6E6E6" d="M1030,894.3l-1.6,3.5c1.1,0.6,2.2,1.2,3.3,1.8l1.5-3.5C1032.2,895.5,1031.1,894.8,1030,894.3z"/>
			<path fill="#534741" d="M1037.8,894.7C1037.8,894.7,1037.9,894.7,1037.8,894.7l1.5-3.3c0,0,0,0,0,0c-0.7-0.2-1.9-1-3.1-1.9
				l-1.4,3.3C1036,893.7,1037.1,894.5,1037.8,894.7z"/>
			<path fill="#E6E6E6" d="M1036.4,898C1036.4,898,1036.4,898.1,1036.4,898l1.5-3.3c0,0,0,0,0,0c-0.7-0.2-1.9-1-3.1-1.9l-1.5,3.3
				C1034.5,897,1035.7,897.8,1036.4,898z"/>
			<path fill="#534741" d="M1036.4,898c-0.7-0.2-1.9-1-3.1-1.9l-1.5,3.5c1.1,0.7,2.2,1.3,3,1.7c0.1,0,0.1,0,0.2,0.1L1036.4,898
				C1036.4,898.1,1036.4,898,1036.4,898z"/>
			<path fill="#534741" d="M1028,890.1c0.1,0,1.2-0.2,3.5,0.9l1.4-3.3c-2.3-1.1-3.5-0.9-3.5-0.9S1028.8,888.3,1028,890.1z"/>
			<path fill="#E6E6E6" d="M1030,894.3l1.5-3.3c-2.3-1-3.4-0.9-3.5-0.9c-0.5,1.1-1,2.2-1.4,3.3
				C1026.6,893.4,1027.8,893.3,1030,894.3z"/>
			<path fill="#534741" d="M1026.5,893.4c-0.2,0.4-0.4,0.8-0.5,1.2c-0.3,0.7-0.6,1.3-0.9,2c1,0.2,2.2,0.6,3.3,1.2l1.6-3.5
				C1027.8,893.3,1026.6,893.4,1026.5,893.4z"/>
		</g>
	</g>
	<g>
		<g>
			<path fill="#4D4D4D" d="M1377.1,908.1h-1v-2h1V908.1z M1377.1,904.1h-1v-2h1V904.1z M1377.1,900.1h-1v-2h1V900.1z M1377.1,896.1
				h-1v-2h1V896.1z M1377.1,892.1h-1v-2h1V892.1z M1377.1,888.1h-1v-2h1V888.1z M1377.1,884.1h-1v-2h1V884.1z M1377.1,880.1h-1v-2h1
				V880.1z M1377.1,876.1h-1v-2h1V876.1z M1377.1,872.1h-1v-2h1V872.1z"/>
		</g>
		<g>
			<g>
				<path fill="#4D4D4D" d="M1378.3,908c0,0.9-0.8,1.7-1.7,1.7c-0.9,0-1.7-0.8-1.7-1.7c0-0.9,0.8-1.7,1.7-1.7
					C1377.6,906.3,1378.3,907.1,1378.3,908z"/>
			</g>
		</g>
		<g>
			<g>
				<polygon fill="#4D4D4D" points="1380.7,873.2 1380,873.8 1376.6,870.2 1373.3,873.8 1372.5,873.2 1376.6,868.8 				"/>
			</g>
		</g>
	</g>
	<circle fill="#FFFFFF" stroke="#222220" stroke-width="0.5" stroke-miterlimit="10" cx="1145.9" cy="639.2" r="1.8"/>
	<text transform="matrix(1 0 0 1 484.2562 518.5519)" font-family="'Raleway-Regular'" font-size="16px">összes</text>
	<text transform="matrix(1 0 0 1 574.4798 518.5519)" fill="#B3B3B3" font-family="'Raleway-Regular'" font-size="16px">férfi</text>
	<text transform="matrix(1 0 0 1 646.7917 518.5519)" fill="#B3B3B3" font-family="'Raleway-Regular'" font-size="16px">nő</text>
	<text transform="matrix(1 0 0 1 484.2565 575.8529)" font-family="'Raleway-Regular'" font-size="16px">összes</text>
	<g>
		<text transform="matrix(1 0 0 1 571.4381 575.8527)" fill="#B3B3B3" font-family="'Raleway-Regular'" font-size="16px">0–18</text>
	</g>
	<text transform="matrix(1 0 0 1 459.8567 551.9326)" fill="#27456F" font-family="'Raleway-Regular'" font-size="16px">ÉLETKOR</text>
	<text transform="matrix(1 0 0 1 459.8567 676.8302)" fill="#27456F" font-family="'Raleway-Regular'" font-size="16px">SAJÁT IDŐ MEGADÁSA (pl. 4:12:30)</text>
	<text transform="matrix(1 0 0 1 459.8567 494.5107)" fill="#27456F" font-family="'Raleway-Regular'" font-size="16px">NEM</text>
	<text transform="matrix(1 0 0 1 459.8567 609.354)" fill="#27456F" font-family="'Raleway-Regular'" font-size="16px">RAJTSZÁM</text>
	<g>
		<text transform="matrix(1 0 0 1 642.0566 575.8528)" fill="#B3B3B3" font-family="'Raleway-Regular'" font-size="16px">19–35</text>
	</g>
	<g>
		<text transform="matrix(1 0 0 1 721.014 575.8528)" fill="#B3B3B3" font-family="'Raleway-Regular'" font-size="16px">36–45</text>
	</g>
	<g>
		<text transform="matrix(1 0 0 1 798.8484 575.8528)" fill="#B3B3B3" font-family="'Raleway-Regular'" font-size="16px">46–60</text>
	</g>
	<g>
		<text transform="matrix(1 0 0 1 880.4087 575.8528)" fill="#B3B3B3" font-family="'Raleway-Regular'" font-size="16px">60+</text>
	</g>
	<g>
		<path fill="#CFE0E9" d="M605.7,644.9c0,1.1-0.9,2-2,2H460.4c-1.1,0-2-0.9-2-2v-19.5c0-1.1,0.9-2,2-2h143.4c1.1,0,2,0.9,2,2V644.9z
			"/>
	</g>
	<g>
		<path fill="#CFE0E9" d="M605.7,715.5c0,1.1-0.9,2-2,2H460.4c-1.1,0-2-0.9-2-2V696c0-1.1,0.9-2,2-2h143.4c1.1,0,2,0.9,2,2V715.5z"
			/>
	</g>
	<path fill="#CFE0E9" d="M955,1311.3c0,1.1-0.9,2-2,2h-54.8c-1.1,0-2-0.9-2-2v-19.5c0-1.1,0.9-2,2-2H953c1.1,0,2,0.9,2,2V1311.3z"/>
	<path fill="#CFE0E9" d="M896.2,1311.3c0,1.1-0.9,2-2,2h-54.8c-1.1,0-2-0.9-2-2v-19.5c0-1.1,0.9-2,2-2h54.8c1.1,0,2,0.9,2,2V1311.3z
		"/>
	<path fill="#CFE0E9" d="M837.3,843.3c0,1.1-0.9,2-2,2h-54.8c-1.1,0-2-0.9-2-2v-19.5c0-1.1,0.9-2,2-2h54.8c1.1,0,2,0.9,2,2V843.3z"
		/>
	<path fill="#CFE0E9" d="M778.5,1311.3c0,1.1-0.9,2-2,2h-54.8c-1.1,0-2-0.9-2-2v-19.5c0-1.1,0.9-2,2-2h54.8c1.1,0,2,0.9,2,2V1311.3z
		"/>
	<g>
		<g>
			<g>
				<g>
					<circle fill="#BEBEBC" cx="467.2" cy="515.9" r="9.3"/>
				</g>
			</g>
			<g>
				<circle fill="#CFE0E9" cx="469.2" cy="513.9" r="9.3"/>
			</g>
		</g>
		<circle fill="#0F6493" cx="469.2" cy="513.9" r="5.1"/>
	</g>
	<g>
		<g>
			<g>
				<g>
					<circle fill="#BEBEBC" cx="467.2" cy="573.2" r="9.3"/>
				</g>
			</g>
			<g>
				<circle fill="#CFE0E9" cx="469.2" cy="571.2" r="9.3"/>
			</g>
		</g>
		<circle fill="#0F6493" cx="469.2" cy="571.2" r="5.1"/>
	</g>
	<g>
		<g>
			<g>
				<circle fill="#BEBEBC" cx="556.4" cy="515.9" r="9.3"/>
			</g>
		</g>
		<g>
			<circle fill="#CFE0E9" cx="558.4" cy="513.9" r="9.3"/>
		</g>
	</g>
	<g>
		<g>
			<g>
				<circle fill="#BEBEBC" cx="627" cy="515.9" r="9.3"/>
			</g>
		</g>
		<g>
			<circle fill="#CFE0E9" cx="629" cy="513.9" r="9.3"/>
		</g>
	</g>
	<g>
		<g>
			<g>
				<circle fill="#BEBEBC" cx="556.4" cy="573.2" r="9.3"/>
			</g>
		</g>
		<g>
			<circle fill="#CFE0E9" cx="558.4" cy="571.2" r="9.3"/>
		</g>
	</g>
	<g>
		<g>
			<g>
				<circle fill="#BEBEBC" cx="627" cy="573.2" r="9.3"/>
			</g>
		</g>
		<g>
			<circle fill="#CFE0E9" cx="629" cy="571.2" r="9.3"/>
		</g>
	</g>
	<g>
		<g>
			<g>
				<circle fill="#BEBEBC" cx="704" cy="573.2" r="9.3"/>
			</g>
		</g>
		<g>
			<circle fill="#CFE0E9" cx="706" cy="571.2" r="9.3"/>
		</g>
	</g>
	<g>
		<g>
			<g>
				<circle fill="#BEBEBC" cx="863.3" cy="573.2" r="9.3"/>
			</g>
		</g>
		<g>
			<circle fill="#CFE0E9" cx="865.3" cy="571.2" r="9.3"/>
		</g>
	</g>
	<g>
		<g>
			<g>
				<circle fill="#BEBEBC" cx="783.7" cy="573.2" r="9.3"/>
			</g>
		</g>
		<g>
			<circle fill="#CFE0E9" cx="785.7" cy="571.2" r="9.3"/>
		</g>
	</g>
	<circle fill="#666666" cx="982.6" cy="629.3" r="0.5"/>
	<rect x="452" y="800.7" fill="#BEBEBC" width="500" height="6.8"/>
	<rect x="455" y="797.7" fill="#E6E6E6" width="500" height="6.8"/>
	<text transform="matrix(1 0 0 1 551.9312 840.8342)" font-family="'Raleway-Regular'" font-size="16px">A lejátszás sebessége</text>
	<text transform="matrix(1 0 0 1 739.7581 839.9422)" font-family="'Raleway-Regular'" font-size="20px">1x</text>
	<text transform="matrix(1 0 0 1 790.7227 839.9422)" font-family="'Raleway-Regular'" font-size="20px">60x</text>
	<text transform="matrix(1 0 0 1 846.098 839.9422)" font-family="'Raleway-Regular'" font-size="20px">120x</text>
	<text transform="matrix(1 0 0 1 902.2725 839.9422)" font-family="'Raleway-Regular'" font-size="20px">600x</text>
	<g>
		<rect x="455" y="797.7" fill="#0F6493" width="291" height="6.8"/>
		<rect x="737.2" y="797.7" fill="#3397C4" width="8.8" height="6.8"/>
	</g>
	<path fill="#0F6493" d="M512.9,1224.1c0.8,0.4,0.8,1.1,0,1.6l-22.8,11.6c-0.8,0.4-1.5,0-1.5-1v-22.7c0-1,0.7-1.4,1.5-1
		L512.9,1224.1z"/>
	<g>
		<path fill="#0F6493" d="M496.6,844.6c0,1.1-0.9,2-2,2h-4c-1.1,0-2-0.9-2-2v-21c0-1.1,0.9-2,2-2h4c1.1,0,2,0.9,2,2V844.6z"/>
		<path fill="#0F6493" d="M510.4,844.6c0,1.1-0.9,2-2,2h-4c-1.1,0-2-0.9-2-2v-21c0-1.1,0.9-2,2-2h4c1.1,0,2,0.9,2,2V844.6z"/>
	</g>
	<g>
		<path fill="#0F6493" d="M490.5,1291.5c0-4.9-3.9-8.8-8.8-8.8s-8.8,4-8.8,8.8c0,3.4,1.9,6.3,4.7,7.8l4.1,11.4l4.1-11.4
			C488.6,1297.8,490.5,1294.8,490.5,1291.5z M484.5,1297.7h-5.6c-2.4-1.1-4-3.4-4-6.2c0-3.8,3.1-6.8,6.8-6.8s6.8,3.1,6.8,6.8
			C488.5,1294.2,486.9,1296.6,484.5,1297.7z"/>
		<circle fill="#FFFFFF" cx="481.7" cy="1291.5" r="6.7"/>
	</g>
	<g>
		<path fill="#0F6493" d="M1051.1,604.1c0-4.9-3.9-8.8-8.8-8.8s-8.8,4-8.8,8.8c0,3.4,1.9,6.3,4.7,7.8l4.1,11.4l4.1-11.4
			C1049.2,610.4,1051.1,607.5,1051.1,604.1z M1045.2,610.3h-5.6c-2.4-1.1-4-3.4-4-6.2c0-3.8,3.1-6.8,6.8-6.8s6.8,3.1,6.8,6.8
			C1049.1,606.9,1047.5,609.3,1045.2,610.3z"/>
		<circle fill="#FFFFFF" cx="1042.3" cy="604.1" r="6.7"/>
	</g>
</g>
<g id="palyavonal" display="none">
	
		<polyline display="inline" fill="none" stroke="#000000" stroke-width="0.5" stroke-linejoin="round" stroke-miterlimit="10" points="
		1057.1,914.7 1057.1,953.2 1111.6,953.2 1111.6,505.7 1098.3,480.3 1084.4,505.8 1084.4,630.9 988.8,630.9 1043.9,686 1084.4,686 
		1084.4,656.2 1381.6,656.2 1381.6,681.7 1355.1,708.3 1355.1,815.2 1368.2,828.3 1395,828.3 1395,828.3 1408.4,814.9 1408.4,792.7 
		1084.4,792.7 1084.4,982.2 988.8,982.2 988.8,1008.5 988.8,1025.3 1011.3,1025.3 1011.3,1005.8 1120.6,1005.8 1120.6,977.3 
		1139.1,954.2 1139.1,97.7 1057.1,97.7 1057.1,161.7 1084.1,161.7 1084.1,204.7 1111.8,227.7 1111.8,252.7 1058.1,252.7 
		1006.1,304.7 1240.1,304.7 1240.1,505.7 1381.6,506 1381.6,475.2 1355.1,475.2 1355.1,403.9 1327.7,403.9 1327.7,822.3 
		1356.9,851.5 1405.5,851.5 1435.2,821.9 1435.2,768.4 1057.6,768.4 1057.6,908.2 	"/>
</g>
<g id="km" display="none">
	<g display="inline">
		<g>
			<circle fill="#94A873" cx="1327.6" cy="731.7" r="8.4"/>
			<text transform="matrix(1 0 0 1 1321.8511 734.7142)" fill="#FFFFFF" font-family="'MyriadPro-Bold'" font-size="10.4px">39</text>
		</g>
		<g>
			<circle fill="#94A873" cx="1057.6" cy="886.8" r="8.4"/>
			<text transform="matrix(1 0 0 1 1051.8511 889.8143)" fill="#FFFFFF" font-family="'MyriadPro-Bold'" font-size="10.4px">42</text>
		</g>
		<g>
			<circle fill="#94A873" cx="1112" cy="911.9" r="8.4"/>
			<text transform="matrix(1 0 0 1 1109.0713 914.9458)" fill="#FFFFFF" font-family="'MyriadPro-Bold'" font-size="10.4px">1</text>
		</g>
		<g>
			<circle fill="#94A873" cx="1112" cy="813.9" r="8.4"/>
			<text transform="matrix(1 0 0 1 1109.0708 816.978)" fill="#FFFFFF" font-family="'MyriadPro-Bold'" font-size="10.4px">2</text>
		</g>
		<g>
			<circle fill="#94A873" cx="1112" cy="715.1" r="8.4"/>
			<text transform="matrix(1 0 0 1 1109.0703 718.1479)" fill="#FFFFFF" font-family="'MyriadPro-Bold'" font-size="10.4px">3</text>
		</g>
		<g>
			<circle fill="#94A873" cx="1112" cy="631.7" r="8.4"/>
			<text transform="matrix(1 0 0 1 1109.0698 634.725)" fill="#FFFFFF" font-family="'MyriadPro-Bold'" font-size="10.4px">4</text>
		</g>
		<g>
			<circle fill="#94A873" cx="1112" cy="571.4" r="8.4"/>
			<text transform="matrix(1 0 0 1 1109.0693 574.4693)" fill="#FFFFFF" font-family="'MyriadPro-Bold'" font-size="10.4px">5</text>
		</g>
		<g>
			<circle fill="#94A873" cx="1084.4" cy="538.2" r="8.4"/>
			<text transform="matrix(1 0 0 1 1081.4873 541.2662)" fill="#FFFFFF" font-family="'MyriadPro-Bold'" font-size="10.4px">7</text>
		</g>
		<g>
			<circle fill="#94A873" cx="1112" cy="508.4" r="8.4"/>
			<text transform="matrix(1 0 0 1 1109.0688 511.4659)" fill="#FFFFFF" font-family="'MyriadPro-Bold'" font-size="10.4px">6</text>
		</g>
		<g>
			<circle fill="#94A873" cx="1014.1" cy="655.5" r="8.4"/>
			<text transform="matrix(1 0 0 1 1011.2141 658.5889)" fill="#FFFFFF" font-family="'MyriadPro-Bold'" font-size="10.4px">9</text>
		</g>
		<g>
			<circle fill="#94A873" cx="1084.8" cy="669.9" r="8.4"/>
			<text transform="matrix(1 0 0 1 1079.0171 672.9152)" fill="#FFFFFF" font-family="'MyriadPro-Bold'" font-size="10.4px">10</text>
		</g>
		<g>
			<circle fill="#94A873" cx="1083.3" cy="608.7" r="8.4"/>
			<text transform="matrix(1 0 0 1 1080.4255 611.7756)" fill="#FFFFFF" font-family="'MyriadPro-Bold'" font-size="10.4px">8</text>
		</g>
		<g>
			<circle fill="#94A873" cx="1084.8" cy="914.9" r="8.4"/>
			<text transform="matrix(1 0 0 1 1079.0181 917.996)" fill="#FFFFFF" font-family="'MyriadPro-Bold'" font-size="10.4px">15</text>
		</g>
		<g>
			<circle fill="#94A873" cx="1084.8" cy="815.2" r="8.4"/>
			<text transform="matrix(1 0 0 1 1079.0176 818.2411)" fill="#FFFFFF" font-family="'MyriadPro-Bold'" font-size="10.4px">14</text>
		</g>
		<g>
			<circle fill="#94A873" cx="1057.6" cy="788.2" r="8.4"/>
			<text transform="matrix(1 0 0 1 1051.8506 791.2149)" fill="#FFFFFF" font-family="'MyriadPro-Bold'" font-size="10.4px">41</text>
		</g>
		<g>
			<circle fill="#94A873" cx="1053.4" cy="1007.5" r="8.4"/>
			<text transform="matrix(1 0 0 1 1047.6689 1010.5181)" fill="#FFFFFF" font-family="'MyriadPro-Bold'" font-size="10.4px">17</text>
		</g>
		<g>
			<circle fill="#94A873" cx="1138" cy="938.2" r="8.4"/>
			<text transform="matrix(1 0 0 1 1132.1846 941.2262)" fill="#FFFFFF" font-family="'MyriadPro-Bold'" font-size="10.4px">18</text>
		</g>
		<g>
			<circle fill="#94A873" cx="1138" cy="831" r="8.4"/>
			<text transform="matrix(1 0 0 1 1132.1846 834.0575)" fill="#FFFFFF" font-family="'MyriadPro-Bold'" font-size="10.4px">19</text>
		</g>
		<g>
			<circle fill="#94A873" cx="1138" cy="746.6" r="8.4"/>
			<text transform="matrix(1 0 0 1 1132.1836 749.6645)" fill="#FFFFFF" font-family="'MyriadPro-Bold'" font-size="10.4px">20</text>
		</g>
		<g>
			<circle fill="#94A873" cx="1138" cy="672.9" r="8.4"/>
			<text transform="matrix(1 0 0 1 1132.1846 675.9651)" fill="#FFFFFF" font-family="'MyriadPro-Bold'" font-size="10.4px">21</text>
		</g>
		<g>
			<circle fill="#94A873" cx="1138" cy="598.8" r="8.4"/>
			<text transform="matrix(1 0 0 1 1132.1841 601.8335)" fill="#FFFFFF" font-family="'MyriadPro-Bold'" font-size="10.4px">22</text>
		</g>
		<g>
			<circle fill="#94A873" cx="1138.5" cy="524.6" r="8.4"/>
			<text transform="matrix(1 0 0 1 1132.71 527.7013)" fill="#FFFFFF" font-family="'MyriadPro-Bold'" font-size="10.4px">23</text>
		</g>
		<g>
			<circle fill="#94A873" cx="1138" cy="455.7" r="8.4"/>
			<text transform="matrix(1 0 0 1 1132.1831 458.7057)" fill="#FFFFFF" font-family="'MyriadPro-Bold'" font-size="10.4px">24</text>
		</g>
		<g>
			<circle fill="#94A873" cx="1138" cy="384.7" r="8.4"/>
			<text transform="matrix(1 0 0 1 1132.1826 387.7359)" fill="#FFFFFF" font-family="'MyriadPro-Bold'" font-size="10.4px">25</text>
		</g>
		<g>
			<circle fill="#94A873" cx="1138.5" cy="321.6" r="8.4"/>
			<text transform="matrix(1 0 0 1 1132.71 324.6863)" fill="#FFFFFF" font-family="'MyriadPro-Bold'" font-size="10.4px">26</text>
		</g>
		<g>
			<circle fill="#94A873" cx="1138" cy="219" r="8.4"/>
			<text transform="matrix(1 0 0 1 1132.1821 222.0604)" fill="#FFFFFF" font-family="'MyriadPro-Bold'" font-size="10.4px">27</text>
		</g>
		<g>
			<circle fill="#94A873" cx="1138" cy="109.3" r="8.4"/>
			<text transform="matrix(1 0 0 1 1132.1816 112.3501)" fill="#FFFFFF" font-family="'MyriadPro-Bold'" font-size="10.4px">28</text>
		</g>
		<g>
			<circle fill="#94A873" cx="1066.6" cy="159.8" r="8.4"/>
			<text transform="matrix(1 0 0 1 1060.8008 162.8882)" fill="#FFFFFF" font-family="'MyriadPro-Bold'" font-size="10.4px">29</text>
		</g>
		<g>
			<circle fill="#94A873" cx="1057.6" cy="253.2" r="8.4"/>
			<text transform="matrix(1 0 0 1 1051.8501 256.2132)" fill="#FFFFFF" font-family="'MyriadPro-Bold'" font-size="10.4px">30</text>
		</g>
		<g>
			<circle fill="#94A873" cx="1206.6" cy="306.7" r="8.4"/>
			<text transform="matrix(1 0 0 1 1200.8511 309.7601)" fill="#FFFFFF" font-family="'MyriadPro-Bold'" font-size="10.4px">31</text>
		</g>
		<g>
			<circle fill="#94A873" cx="1240.1" cy="371" r="8.4"/>
			<text transform="matrix(1 0 0 1 1234.3511 374.0999)" fill="#FFFFFF" font-family="'MyriadPro-Bold'" font-size="10.4px">32</text>
		</g>
		<g>
			<circle fill="#94A873" cx="1242.6" cy="441.3" r="8.4"/>
			<text transform="matrix(1 0 0 1 1236.8013 444.3799)" fill="#FFFFFF" font-family="'MyriadPro-Bold'" font-size="10.4px">33</text>
		</g>
		<g>
			<circle fill="#94A873" cx="1253.6" cy="506.1" r="8.4"/>
			<text transform="matrix(1 0 0 1 1247.8511 509.1258)" fill="#FFFFFF" font-family="'MyriadPro-Bold'" font-size="10.4px">34</text>
		</g>
		<g>
			<circle fill="#94A873" cx="1327.6" cy="576.8" r="8.4"/>
			<text transform="matrix(1 0 0 1 1321.8511 579.8694)" fill="#FFFFFF" font-family="'MyriadPro-Bold'" font-size="10.4px">37</text>
		</g>
		<g>
			<circle fill="#94A873" cx="1354.6" cy="468.1" r="8.4"/>
			<text transform="matrix(1 0 0 1 1348.8506 471.1616)" fill="#FFFFFF" font-family="'MyriadPro-Bold'" font-size="10.4px">35</text>
		</g>
		<g>
			<circle fill="#94A873" cx="1327.6" cy="480.7" r="8.4"/>
			<text transform="matrix(1 0 0 1 1321.8511 483.7134)" fill="#FFFFFF" font-family="'MyriadPro-Bold'" font-size="10.4px">36</text>
		</g>
		<g>
			<circle fill="#94A873" cx="1327.6" cy="664" r="8.4"/>
			<text transform="matrix(1 0 0 1 1321.8511 667.0405)" fill="#FFFFFF" font-family="'MyriadPro-Bold'" font-size="10.4px">38</text>
		</g>
		<g>
			<circle fill="#94A873" cx="1435.2" cy="813.9" r="8.4"/>
			<text transform="matrix(1 0 0 1 1429.4253 816.9802)" fill="#FFFFFF" font-family="'MyriadPro-Bold'" font-size="10.4px">40</text>
		</g>
		<g>
			<circle fill="#94A873" cx="1354.6" cy="781" r="8.4"/>
			<text transform="matrix(1 0 0 1 1348.8511 784.089)" fill="#FFFFFF" font-family="'MyriadPro-Bold'" font-size="10.4px">12</text>
		</g>
		<g>
			<circle fill="#94A873" cx="1381.6" cy="669.9" r="8.4"/>
			<text transform="matrix(1 0 0 1 1375.8511 672.9127)" fill="#FFFFFF" font-family="'MyriadPro-Bold'" font-size="10.4px">11</text>
		</g>
		<g>
			<circle fill="#94A873" cx="1407.6" cy="797.7" r="8.4"/>
			<text transform="matrix(1 0 0 1 1401.8516 800.7145)" fill="#FFFFFF" font-family="'MyriadPro-Bold'" font-size="10.4px">13</text>
		</g>
		<g>
			<circle fill="#94A873" cx="1066.6" cy="982.7" r="8.4"/>
			<text transform="matrix(1 0 0 1 1060.8013 985.7123)" fill="#FFFFFF" font-family="'MyriadPro-Bold'" font-size="10.4px">16</text>
		</g>
	</g>
	<g display="inline">
		<g>
			<circle fill="#94A873" cx="1981.6" cy="731.7" r="8.4"/>
			<text transform="matrix(1 0 0 1 1975.7921 734.7142)" fill="#FFFFFF" font-family="'MyriadPro-Bold'" font-size="10.4px">39</text>
		</g>
		<g>
			<circle fill="#94A873" cx="1711.6" cy="886.8" r="8.4"/>
			<text transform="matrix(1 0 0 1 1705.7921 889.8143)" fill="#FFFFFF" font-family="'MyriadPro-Bold'" font-size="10.4px">42</text>
		</g>
		<g>
			<circle fill="#94A873" cx="1765.9" cy="911.9" r="8.4"/>
			<text transform="matrix(1 0 0 1 1763.0123 914.9458)" fill="#FFFFFF" font-family="'MyriadPro-Bold'" font-size="10.4px">1</text>
		</g>
		<g>
			<circle fill="#94A873" cx="1765.9" cy="813.9" r="8.4"/>
			<text transform="matrix(1 0 0 1 1763.0118 816.978)" fill="#FFFFFF" font-family="'MyriadPro-Bold'" font-size="10.4px">2</text>
		</g>
		<g>
			<circle fill="#94A873" cx="1765.9" cy="715.1" r="8.4"/>
			<text transform="matrix(1 0 0 1 1763.0114 718.1479)" fill="#FFFFFF" font-family="'MyriadPro-Bold'" font-size="10.4px">3</text>
		</g>
		<g>
			<circle fill="#94A873" cx="1765.9" cy="631.7" r="8.4"/>
			<text transform="matrix(1 0 0 1 1763.0109 634.725)" fill="#FFFFFF" font-family="'MyriadPro-Bold'" font-size="10.4px">4</text>
		</g>
		<g>
			<circle fill="#94A873" cx="1765.9" cy="571.4" r="8.4"/>
			<text transform="matrix(1 0 0 1 1763.0104 574.4693)" fill="#FFFFFF" font-family="'MyriadPro-Bold'" font-size="10.4px">5</text>
		</g>
		<g>
			<circle fill="#94A873" cx="1738.3" cy="538.2" r="8.4"/>
			<text transform="matrix(1 0 0 1 1735.4283 541.2662)" fill="#FFFFFF" font-family="'MyriadPro-Bold'" font-size="10.4px">7</text>
		</g>
		<g>
			<circle fill="#94A873" cx="1765.9" cy="508.4" r="8.4"/>
			<text transform="matrix(1 0 0 1 1763.0099 511.4659)" fill="#FFFFFF" font-family="'MyriadPro-Bold'" font-size="10.4px">6</text>
		</g>
		<g>
			<circle fill="#94A873" cx="1668" cy="655.5" r="8.4"/>
			<text transform="matrix(1 0 0 1 1665.1552 658.5889)" fill="#FFFFFF" font-family="'MyriadPro-Bold'" font-size="10.4px">9</text>
		</g>
		<g>
			<circle fill="#94A873" cx="1738.7" cy="669.9" r="8.4"/>
			<text transform="matrix(1 0 0 1 1732.9581 672.9152)" fill="#FFFFFF" font-family="'MyriadPro-Bold'" font-size="10.4px">10</text>
		</g>
		<g>
			<circle fill="#94A873" cx="1737.3" cy="608.7" r="8.4"/>
			<text transform="matrix(1 0 0 1 1734.3666 611.7756)" fill="#FFFFFF" font-family="'MyriadPro-Bold'" font-size="10.4px">8</text>
		</g>
		<g>
			<circle fill="#94A873" cx="1738.7" cy="914.9" r="8.4"/>
			<text transform="matrix(1 0 0 1 1732.9591 917.996)" fill="#FFFFFF" font-family="'MyriadPro-Bold'" font-size="10.4px">15</text>
		</g>
		<g>
			<circle fill="#94A873" cx="1738.7" cy="815.2" r="8.4"/>
			<text transform="matrix(1 0 0 1 1732.9586 818.2411)" fill="#FFFFFF" font-family="'MyriadPro-Bold'" font-size="10.4px">14</text>
		</g>
		<g>
			<circle fill="#94A873" cx="1711.6" cy="788.2" r="8.4"/>
			<text transform="matrix(1 0 0 1 1705.7916 791.2149)" fill="#FFFFFF" font-family="'MyriadPro-Bold'" font-size="10.4px">41</text>
		</g>
		<g>
			<circle fill="#94A873" cx="1707.4" cy="1007.5" r="8.4"/>
			<text transform="matrix(1 0 0 1 1701.61 1010.5181)" fill="#FFFFFF" font-family="'MyriadPro-Bold'" font-size="10.4px">17</text>
		</g>
		<g>
			<circle fill="#94A873" cx="1791.9" cy="938.2" r="8.4"/>
			<text transform="matrix(1 0 0 1 1786.1256 941.2262)" fill="#FFFFFF" font-family="'MyriadPro-Bold'" font-size="10.4px">18</text>
		</g>
		<g>
			<circle fill="#94A873" cx="1791.9" cy="831" r="8.4"/>
			<text transform="matrix(1 0 0 1 1786.1256 834.0575)" fill="#FFFFFF" font-family="'MyriadPro-Bold'" font-size="10.4px">19</text>
		</g>
		<g>
			<circle fill="#94A873" cx="1791.9" cy="746.6" r="8.4"/>
			<text transform="matrix(1 0 0 1 1786.1246 749.6645)" fill="#FFFFFF" font-family="'MyriadPro-Bold'" font-size="10.4px">20</text>
		</g>
		<g>
			<circle fill="#94A873" cx="1791.9" cy="672.9" r="8.4"/>
			<text transform="matrix(1 0 0 1 1786.1256 675.9651)" fill="#FFFFFF" font-family="'MyriadPro-Bold'" font-size="10.4px">21</text>
		</g>
		<g>
			<circle fill="#94A873" cx="1791.9" cy="598.8" r="8.4"/>
			<text transform="matrix(1 0 0 1 1786.1251 601.8335)" fill="#FFFFFF" font-family="'MyriadPro-Bold'" font-size="10.4px">22</text>
		</g>
		<g>
			<circle fill="#94A873" cx="1792.4" cy="524.6" r="8.4"/>
			<text transform="matrix(1 0 0 1 1786.651 527.7013)" fill="#FFFFFF" font-family="'MyriadPro-Bold'" font-size="10.4px">23</text>
		</g>
		<g>
			<circle fill="#94A873" cx="1791.9" cy="455.7" r="8.4"/>
			<text transform="matrix(1 0 0 1 1786.1241 458.7057)" fill="#FFFFFF" font-family="'MyriadPro-Bold'" font-size="10.4px">24</text>
		</g>
		<g>
			<circle fill="#94A873" cx="1791.9" cy="384.7" r="8.4"/>
			<text transform="matrix(1 0 0 1 1786.1237 387.7359)" fill="#FFFFFF" font-family="'MyriadPro-Bold'" font-size="10.4px">25</text>
		</g>
		<g>
			<circle fill="#94A873" cx="1792.4" cy="321.6" r="8.4"/>
			<text transform="matrix(1 0 0 1 1786.651 324.6863)" fill="#FFFFFF" font-family="'MyriadPro-Bold'" font-size="10.4px">26</text>
		</g>
		<g>
			<circle fill="#94A873" cx="1791.9" cy="219" r="8.4"/>
			<text transform="matrix(1 0 0 1 1786.1232 222.0604)" fill="#FFFFFF" font-family="'MyriadPro-Bold'" font-size="10.4px">27</text>
		</g>
		<g>
			<circle fill="#94A873" cx="1791.9" cy="109.3" r="8.4"/>
			<text transform="matrix(1 0 0 1 1786.1227 112.3501)" fill="#FFFFFF" font-family="'MyriadPro-Bold'" font-size="10.4px">28</text>
		</g>
		<g>
			<circle fill="#94A873" cx="1720.5" cy="159.8" r="8.4"/>
			<text transform="matrix(1 0 0 1 1714.7418 162.8882)" fill="#FFFFFF" font-family="'MyriadPro-Bold'" font-size="10.4px">29</text>
		</g>
		<g>
			<circle fill="#94A873" cx="1711.6" cy="253.2" r="8.4"/>
			<text transform="matrix(1 0 0 1 1705.7911 256.2132)" fill="#FFFFFF" font-family="'MyriadPro-Bold'" font-size="10.4px">30</text>
		</g>
		<g>
			<circle fill="#94A873" cx="1860.6" cy="306.7" r="8.4"/>
			<text transform="matrix(1 0 0 1 1854.7921 309.7601)" fill="#FFFFFF" font-family="'MyriadPro-Bold'" font-size="10.4px">31</text>
		</g>
		<g>
			<circle fill="#94A873" cx="1894.1" cy="371" r="8.4"/>
			<text transform="matrix(1 0 0 1 1888.2921 374.0999)" fill="#FFFFFF" font-family="'MyriadPro-Bold'" font-size="10.4px">32</text>
		</g>
		<g>
			<circle fill="#94A873" cx="1896.5" cy="441.3" r="8.4"/>
			<text transform="matrix(1 0 0 1 1890.7423 444.3799)" fill="#FFFFFF" font-family="'MyriadPro-Bold'" font-size="10.4px">33</text>
		</g>
		<g>
			<circle fill="#94A873" cx="1907.6" cy="506.1" r="8.4"/>
			<text transform="matrix(1 0 0 1 1901.7921 509.1258)" fill="#FFFFFF" font-family="'MyriadPro-Bold'" font-size="10.4px">34</text>
		</g>
		<g>
			<circle fill="#94A873" cx="1981.6" cy="576.8" r="8.4"/>
			<text transform="matrix(1 0 0 1 1975.7921 579.8694)" fill="#FFFFFF" font-family="'MyriadPro-Bold'" font-size="10.4px">37</text>
		</g>
		<g>
			<circle fill="#94A873" cx="2008.6" cy="468.1" r="8.4"/>
			<text transform="matrix(1 0 0 1 2002.7916 471.1616)" fill="#FFFFFF" font-family="'MyriadPro-Bold'" font-size="10.4px">35</text>
		</g>
		<g>
			<circle fill="#94A873" cx="1981.6" cy="480.7" r="8.4"/>
			<text transform="matrix(1 0 0 1 1975.7921 483.7134)" fill="#FFFFFF" font-family="'MyriadPro-Bold'" font-size="10.4px">36</text>
		</g>
		<g>
			<circle fill="#94A873" cx="1981.6" cy="664" r="8.4"/>
			<text transform="matrix(1 0 0 1 1975.7921 667.0405)" fill="#FFFFFF" font-family="'MyriadPro-Bold'" font-size="10.4px">38</text>
		</g>
		<g>
			<circle fill="#94A873" cx="2089.1" cy="813.9" r="8.4"/>
			<text transform="matrix(1 0 0 1 2083.3662 816.9802)" fill="#FFFFFF" font-family="'MyriadPro-Bold'" font-size="10.4px">40</text>
		</g>
		<g>
			<circle fill="#94A873" cx="2008.6" cy="781" r="8.4"/>
			<text transform="matrix(1 0 0 1 2002.7921 784.089)" fill="#FFFFFF" font-family="'MyriadPro-Bold'" font-size="10.4px">12</text>
		</g>
		<g>
			<circle fill="#94A873" cx="2035.6" cy="669.9" r="8.4"/>
			<text transform="matrix(1 0 0 1 2029.7921 672.9127)" fill="#FFFFFF" font-family="'MyriadPro-Bold'" font-size="10.4px">11</text>
		</g>
		<g>
			<circle fill="#94A873" cx="2061.6" cy="797.7" r="8.4"/>
			<text transform="matrix(1 0 0 1 2055.7925 800.7145)" fill="#FFFFFF" font-family="'MyriadPro-Bold'" font-size="10.4px">13</text>
		</g>
		<g>
			<circle fill="#94A873" cx="1720.5" cy="982.7" r="8.4"/>
			<text transform="matrix(1 0 0 1 1714.7423 985.7123)" fill="#FFFFFF" font-family="'MyriadPro-Bold'" font-size="10.4px">16</text>
		</g>
	</g>
	
		<image display="inline" overflow="visible" width="1920" height="1200" xlink:href="F6A81174.jpg"  transform="matrix(1 0 0 1 -50.9853 -1122.2172)">
	</image>
	<rect x="965.6" y="-121.7" display="inline" fill="#CACACA" width="242.8" height="115.8"/>
</g>
</svg>
